<?xml version="1.0" encoding="UTF-8" standalone="no"?>
<!-- Created with Inkscape (http://www.inkscape.org/) -->

<svg
   xmlns:dc="http://purl.org/dc/elements/1.1/"
   xmlns:cc="http://creativecommons.org/ns#"
   xmlns:rdf="http://www.w3.org/1999/02/22-rdf-syntax-ns#"
   xmlns:svg="http://www.w3.org/2000/svg"
   xmlns="http://www.w3.org/2000/svg"
   xmlns:sodipodi="http://sodipodi.sourceforge.net/DTD/sodipodi-0.dtd"
   xmlns:inkscape="http://www.inkscape.org/namespaces/inkscape"
   width="744.09448819"
   height="1052.3622047"
   id="svg2"
   version="1.1"
   inkscape:version="0.48.4 r9939"
   sodipodi:docname="Gladius.svg">
  <defs
     id="defs4" />
  <sodipodi:namedview
     id="base"
     pagecolor="#ffffff"
     bordercolor="#666666"
     borderopacity="1.0"
     inkscape:pageopacity="0.0"
     inkscape:pageshadow="2"
     inkscape:zoom="0.35"
     inkscape:cx="375"
     inkscape:cy="634.28571"
     inkscape:document-units="px"
     inkscape:current-layer="layer1"
     showgrid="false"
     inkscape:window-width="1375"
     inkscape:window-height="876"
     inkscape:window-x="65"
     inkscape:window-y="24"
     inkscape:window-maximized="1"
     showguides="true"
     inkscape:guide-bbox="true" />
  <metadata
     id="metadata7">
    <rdf:RDF>
      <cc:Work
         rdf:about="">
        <dc:format>image/svg+xml</dc:format>
        <dc:type
           rdf:resource="http://purl.org/dc/dcmitype/StillImage" />
        <dc:title />
      </cc:Work>
    </rdf:RDF>
  </metadata>
  <g
     inkscape:label="Layer 1"
     inkscape:groupmode="layer"
     id="layer1">
    <path
       sodipodi:type="arc"
       style="fill:#000000"
       id="path2985"
       sodipodi:cx="507.14285"
       sodipodi:cy="425.21933"
       sodipodi:rx="150"
       sodipodi:ry="155.71428"
       d="m 657.14285,425.21933 a 150,155.71428 0 1 1 -300,0 150,155.71428 0 1 1 300,0 z"
       transform="translate(-134.28571,-191.42857)" />
    <path
       style="fill:#000000;stroke:#000000;stroke-width:1px;stroke-linecap:butt;stroke-linejoin:miter;stroke-opacity:1"
       d="m 251.42857,383.79075 c 51.42857,25.71429 51.42857,25.71429 51.42857,25.71429 L 440,412.36218 l 51.42857,-31.42857 0,0 -20,94.28572 14.28572,197.14285 -231.42858,2.85715 17.14286,-197.14286 z"
       id="path3003"
       inkscape:connector-curvature="0" />
    <path
       style="fill:#000000;stroke:#000000;stroke-width:1px;stroke-linecap:butt;stroke-linejoin:miter;stroke-opacity:1"
       d="M 520,406.6479 597.14286,560.93361 540,586.6479 491.42857,483.79076 z"
       id="path3009"
       inkscape:connector-curvature="0" />
    <path
       style="fill:#000000;stroke:#000000;stroke-width:1px;stroke-linecap:butt;stroke-linejoin:miter;stroke-opacity:1"
       d="m 218.57144,402.36219 -77.14286,154.28571 57.14286,25.71429 48.57143,-102.85714 z"
       id="path3009-3"
       inkscape:connector-curvature="0" />
    <path
       style="fill:#000000;stroke:#000000;stroke-width:1px;stroke-linecap:butt;stroke-linejoin:miter;stroke-opacity:1"
       d="m 248.57143,692.36218 240,-2.85714 11.42857,65.71429 -45.71429,-22.85715 -162.85714,-2.85714 -34.28571,17.14286 -8.57143,5.71428 z"
       id="path3029"
       inkscape:connector-curvature="0" />
    <path
       style="fill:#000000;stroke:#000000;stroke-width:1px;stroke-linecap:butt;stroke-linejoin:miter;stroke-opacity:1"
       d="m 411.42857,760.93361 34.28571,-2.85714 48.57143,28.57143 20,197.14285 -88.57143,-5.71428 z"
       id="path3031"
       inkscape:connector-curvature="0" />
    <path
       style="fill:#000000;stroke:#000000;stroke-width:1px;stroke-linecap:butt;stroke-linejoin:miter;stroke-opacity:1"
       d="m 351.42857,759.50504 -34.28571,-2.8571 -48.57143,28.5714 -20,197.1428 88.57143,-5.7142 z"
       id="path3031-0"
       inkscape:connector-curvature="0" />
    <path
       sodipodi:type="arc"
       style="fill:#ffffff"
       id="path3096"
       sodipodi:cx="-371.42856"
       sodipodi:cy="200.93361"
       sodipodi:rx="42.857143"
       sodipodi:ry="34.285713"
       d="m -328.57141,200.93361 a 42.857143,34.285713 0 1 1 -85.71429,0 42.857143,34.285713 0 1 1 85.71429,0 z"
       transform="translate(465.71429,-11.428571)" />
    <flowRoot
       xml:space="preserve"
       id="flowRoot3148"
       style="font-size:40px;font-style:normal;font-weight:normal;line-height:125%;letter-spacing:0px;word-spacing:0px;fill:#000000;fill-opacity:1;stroke:none;font-family:Sans"
       transform="matrix(5.670262,0,0,8.7439823,6020.1011,865.18774)"><flowRegion
         id="flowRegion3150"><rect
           id="rect3152"
           width="1077.1428"
           height="411.42856"
           x="-1085.7142"
           y="-144.78067" /></flowRegion><flowPara
         id="flowPara3154">GLADIUS</flowPara></flowRoot>    <path
       style="fill:#b3b3b3;stroke:#000000;stroke-width:1px;stroke-linecap:butt;stroke-linejoin:miter;stroke-opacity:1"
       d="m 457.14286,438.07647 -42.85715,8.57143 -82.85714,111.42857 14.28571,17.14286 108.57143,-94.28572 z"
       id="path3168"
       inkscape:connector-curvature="0" />
    <path
       style="fill:#550000;stroke:#000000;stroke-width:1px;stroke-linecap:butt;stroke-linejoin:miter;stroke-opacity:1"
       d="m 348.57143,572.36218 c 11.42857,0 22.85714,20 22.85714,20 L 342.85715,600.93361 300,552.36218 322.85715,535.21932 z"
       id="path3170"
       inkscape:connector-curvature="0" />
    <path
       style="fill:#550000;stroke:#000000;stroke-width:1px;stroke-linecap:butt;stroke-linejoin:miter;stroke-opacity:1"
       d="M 334.28572,583.79075 302.85715,609.50504 280,595.21932 322.85715,569.50504 z"
       id="path3172"
       inkscape:connector-curvature="0" />
    <path
       style="fill:#000000;stroke:#000000;stroke-width:1px;stroke-linecap:butt;stroke-linejoin:miter;stroke-opacity:1"
       d="M 451.42857,452.36218 345.71429,566.6479 340,563.79075 434.28571,455.21933 z"
       id="path3176"
       inkscape:connector-curvature="0" />
    <path
       style="fill:#ffffff"
       id="path3186"
       d="m -854.38618,756.58646 c 28.83128,18.89692 58.01625,37.2311 87.20698,55.58034 48.68509,30.33196 94.9012,64.34595 141.83604,97.25922 26.53363,18.20787 53.82282,35.43279 81.61,51.67829 2.18823,1.20872 4.32809,2.50946 6.56468,3.62615 1.1999,0.59909 2.44524,1.12204 3.72816,1.51291 0.261,0.0795 1.03762,-0.27821 0.80799,-0.13086 -36.15349,23.19987 -25.18505,30.68567 -41.769,19.84187 -11.30002,-8.37168 -20.46636,-19.17244 -30.83256,-28.57937 -3.53936,-3.21184 -7.29008,-6.18278 -10.93513,-9.27418 -27.08523,-20.94979 -54.938,-40.88 -82.92039,-60.60751 -16.03584,-10.90891 -29.55151,-24.52934 -41.23586,-39.89555 -10.46897,-16.74482 -20.99745,-33.44944 -30.82489,-50.58169 -7.25978,-12.42094 -14.25349,-24.98991 -21.39189,-37.47925 -4.19884,-8.05316 -6.58443,-16.70699 -8.05533,-25.61571 -1.70537,-8.90424 0.67173,-16.84099 6.49798,-23.5866 13.53107,-11.07837 31.69336,-19.39919 45.68012,-27.14127 3.12636,-1.73054 7.16604,-2.56535 10.46438,-4.03123 6.93981,-2.92403 13.69914,-6.18322 20.91597,-8.40094 6.3807,-1.64424 13.12373,-2.41012 19.1255,-5.19622 7.32529,-3.01257 15.03146,-4.39899 22.86667,-5.1403 7.27951,-0.0268 14.38258,-1.01153 21.56542,-2.05319 7.69028,-1.08388 15.14036,-1.38526 22.7301,0.30823 9.46673,1.90926 18.19796,5.47457 26.52392,10.27795 12.95898,7.68168 25.665,15.79572 38.03729,24.39011 9.30272,6.45331 17.89968,13.81353 26.14957,21.54529 7.22285,7.02054 14.33508,14.149 20.94746,21.7504 6.32083,6.95964 11.7887,14.68113 16.57571,22.764 5.28174,9.15569 11.62236,17.63625 17.73968,26.23816 5.70908,7.84225 11.05404,15.91759 17.18571,23.44347 6.16484,6.83123 12.17384,13.7912 18.20167,20.74457 3.5874,4.52426 7.08824,9.11265 10.73127,13.59266 0,0 -36.11149,21.6036 -36.11149,21.6036 l 0,0 c -3.57549,-4.46551 -7.00898,-9.03687 -10.51319,-13.55804 -6.04607,-7.01706 -12.31254,-13.81921 -18.39763,-20.7972 -6.09007,-7.64968 -11.32697,-15.87364 -17.04457,-23.79479 -6.27835,-8.6473 -12.68915,-17.22159 -18.09633,-26.45874 -4.66471,-7.88166 -10.12305,-15.27437 -16.21439,-22.11571 -6.46115,-7.56677 -13.50071,-14.55243 -20.74975,-21.36574 -8.00468,-7.61416 -16.29681,-14.93709 -25.31726,-21.34323 -12.25926,-8.606 -24.9895,-16.53017 -38.07902,-23.81475 -8.23365,-4.21714 -16.8806,-7.36249 -26.02467,-8.9789 -7.36733,-0.94125 -14.72649,-0.21208 -22.05801,0.8496 -7.17392,0.99635 -14.36394,1.3665 -21.57913,1.9276 -7.67228,1.05503 -15.12561,3.00622 -22.29005,5.99097 -6.35019,1.87887 -12.84952,3.15394 -19.18759,5.06337 -7.02166,2.57858 -13.75749,5.82701 -20.69321,8.62154 -2.38485,0.95007 -4.79932,1.82812 -7.15876,2.83967 -1.05894,0.454 -4.12253,2.05057 -3.1322,1.46172 58.49895,-34.78342 38.96445,-22.51887 26.14287,-15.263 -6.48822,5.10063 -9.70625,11.5537 -8.21741,19.95725 1.15413,8.49911 3.31745,16.68755 7.18125,24.39905 6.73787,12.69108 13.36101,25.44386 20.46594,37.93657 9.70334,17.00867 20.29494,33.45443 30.90187,49.90904 11.40444,14.9163 24.40735,28.37843 39.64532,39.47508 27.52146,20.48778 55.25248,40.68153 82.99798,60.85922 3.83759,3.08816 7.77782,6.05296 11.51278,9.26448 10.50241,9.03054 19.89267,19.5447 31.72555,26.94921 0.97231,0.54568 1.92701,1.12401 2.91694,1.63704 0.75853,0.39312 2.99488,0.54962 2.32466,1.07945 -34.91193,27.599 -24.13306,30.8094 -44.34058,17.50335 -26.89544,-17.23435 -53.76851,-34.59783 -79.69718,-53.25278 -45.96791,-33.91999 -91.85039,-68.11268 -140.90861,-97.52306 -46.04442,-27.56864 -3.47522,-2.27393 -46.20627,-27.15429 -10.01575,-5.83172 -19.8255,-12.01575 -29.8966,-17.75135 -0.532,-0.30298 -13.11319,-6.96621 -15.32638,-8.139 0,0 35.6979,-22.85698 35.6979,-22.85698 z"
       inkscape:connector-curvature="0" />
    <path
       sodipodi:type="arc"
       style="fill:#2ad4ff"
       id="path3234"
       sodipodi:cx="-1090"
       sodipodi:cy="156.6479"
       sodipodi:rx="41.42857"
       sodipodi:ry="30"
       d="m -1048.5714,156.6479 a 41.42857,30 0 1 1 -82.8572,0 41.42857,30 0 1 1 82.8572,0 z"
       transform="translate(1408.5714,42.857143)" />
    <path
       sodipodi:type="arc"
       style="fill:#2ad4ff"
       id="path3234-1"
       sodipodi:cx="-1090"
       sodipodi:cy="156.6479"
       sodipodi:rx="41.42857"
       sodipodi:ry="30"
       d="m -1048.5714,156.6479 a 41.42857,30 0 1 1 -82.8572,0 41.42857,30 0 1 1 82.8572,0 z"
       transform="translate(1512.8572,41.428567)" />
    <path
       style="fill:#cccccc;stroke:#000000;stroke-width:1px;stroke-linecap:butt;stroke-linejoin:miter;stroke-opacity:1"
       d="m -520.00001,-124.78068 c -57.14286,-8.57142 -57.14286,-8.57142 -57.14286,-8.57142 l -28.5714,31.42856 -20,51.428577 28.5714,34.28571 74.28576,-20 37.1428,-60 z"
       id="path3262"
       inkscape:connector-curvature="0" />
    <path
       style="fill:#cccccc;stroke:#000000;stroke-width:1px;stroke-linecap:butt;stroke-linejoin:miter;stroke-opacity:1"
       d="m 475.71428,373.79075 c 57.14286,-8.57142 57.14286,-8.57142 57.14286,-8.57142 l 28.57143,31.42856 20,51.42858 -28.57143,34.28571 -74.28572,-20 -37.14285,-60 z"
       id="path3262-3"
       inkscape:connector-curvature="0" />
    <path
       style="fill:#cccccc;stroke:#000000;stroke-width:1px;stroke-linecap:butt;stroke-linejoin:miter;stroke-opacity:1"
       d="m -825.71428,-101.92354 c -17.14285,14.285711 -17.14285,14.285711 -17.14285,14.285711 l -2.85715,28.57143 31.42857,-2.85714 42.85715,-11.42857 11.42857,2.85714 -11.42857,-28.57143 -5.71429,0 z"
       id="path3370"
       inkscape:connector-curvature="0" />
    <path
       style="fill:#cccccc;stroke:#000000;stroke-width:1px;stroke-linecap:butt;stroke-linejoin:miter;stroke-opacity:1"
       d="m -557.14286,139.50507 c 17.14285,14.28569 17.14285,14.28569 17.14285,14.28569 l 2.85715,28.5714 -31.42857,-2.8571 -42.85715,-11.4286 -11.42857,2.8571 11.42857,-28.57139 5.71429,0 z"
       id="path3370-3"
       inkscape:connector-curvature="0" />
  </g>
</svg>
