<?xml version="1.0" encoding="UTF-8" standalone="no"?>
<!-- Created with Inkscape (http://www.inkscape.org/) -->

<svg
   xmlns:dc="http://purl.org/dc/elements/1.1/"
   xmlns:cc="http://creativecommons.org/ns#"
   xmlns:rdf="http://www.w3.org/1999/02/22-rdf-syntax-ns#"
   xmlns:svg="http://www.w3.org/2000/svg"
   xmlns="http://www.w3.org/2000/svg"
   xmlns:sodipodi="http://sodipodi.sourceforge.net/DTD/sodipodi-0.dtd"
   xmlns:inkscape="http://www.inkscape.org/namespaces/inkscape"
   width="744.09448819"
   height="1052.3622047"
   id="svg3115"
   version="1.1"
   inkscape:version="0.48.4 r9939"
   sodipodi:docname="New document 5">
  <defs
     id="defs3117" />
  <sodipodi:namedview
     id="base"
     pagecolor="#ffffff"
     bordercolor="#666666"
     borderopacity="1.0"
     inkscape:pageopacity="0.0"
     inkscape:pageshadow="2"
     inkscape:zoom="0.35"
     inkscape:cx="375"
     inkscape:cy="520"
     inkscape:document-units="px"
     inkscape:current-layer="layer1"
     showgrid="false"
     inkscape:window-width="1375"
     inkscape:window-height="876"
     inkscape:window-x="65"
     inkscape:window-y="24"
     inkscape:window-maximized="1" />
  <metadata
     id="metadata3120">
    <rdf:RDF>
      <cc:Work
         rdf:about="">
        <dc:format>image/svg+xml</dc:format>
        <dc:type
           rdf:resource="http://purl.org/dc/dcmitype/StillImage" />
        <dc:title></dc:title>
      </cc:Work>
    </rdf:RDF>
  </metadata>
  <g
     inkscape:label="Layer 1"
     inkscape:groupmode="layer"
     id="layer1">
    <rect
       style="fill:#cccccc"
       id="rect3123"
       width="1657.1428"
       height="1054.2856"
       x="-8.5714283"
       y="3.7907541" />
    <path
       style="fill:none;stroke:#000000;stroke-width:1px;stroke-linecap:butt;stroke-linejoin:miter;stroke-opacity:1"
       d="m 40,372.36218 c 54.285714,-11.42857 1617.1429,2.85715 1617.1429,2.85715 z"
       id="path3125"
       inkscape:connector-curvature="0" />
    <path
       style="fill:none;stroke:#000000;stroke-width:1px;stroke-linecap:butt;stroke-linejoin:miter;stroke-opacity:1"
       d="m 40,375.21933 -37.1428571,0 z"
       id="path3127"
       inkscape:connector-curvature="0" />
    <path
       style="fill:none;stroke:#000000;stroke-width:1px;stroke-linecap:butt;stroke-linejoin:miter;stroke-opacity:1"
       d="m 14.285714,326.6479 c 14.285715,0 1651.428586,8.57143 1651.428586,8.57143"
       id="path3129"
       inkscape:connector-curvature="0" />
    <path
       style="fill:none;stroke:#000000;stroke-width:1px;stroke-linecap:butt;stroke-linejoin:miter;stroke-opacity:1"
       d="m -11.428571,178.07647 1654.285671,20"
       id="path3131"
       inkscape:connector-curvature="0" />
    <path
       style="fill:none;stroke:#000000;stroke-width:1px;stroke-linecap:butt;stroke-linejoin:miter;stroke-opacity:1"
       d="M -11.428571,195.21933 1654.2857,209.50504"
       id="path3133"
       inkscape:connector-curvature="0" />
    <path
       style="fill:none;stroke:#000000;stroke-width:1px;stroke-linecap:butt;stroke-linejoin:miter;stroke-opacity:1"
       d="m 31.428571,198.07647 2.857143,131.42857"
       id="path3135"
       inkscape:connector-curvature="0" />
    <path
       style="fill:#666666;stroke:#000000;stroke-width:1px;stroke-linecap:butt;stroke-linejoin:miter;stroke-opacity:1"
       d="m 77.142857,329.50504 -2.857143,-131.42857 -42.857143,-2.85714 0,134.28571 z"
       id="path3137"
       inkscape:connector-curvature="0" />
    <path
       style="fill:#333333;stroke:#000000;stroke-width:1px;stroke-linecap:butt;stroke-linejoin:miter;stroke-opacity:1"
       d="m 151.42857,195.21933 -2.85714,140 45.71428,0 -2.85714,-134.28572 z"
       id="path3139"
       inkscape:connector-curvature="0" />
    <path
       style="fill:#333333;stroke:#000000;stroke-width:1px;stroke-linecap:butt;stroke-linejoin:miter;stroke-opacity:1"
       d="m 285.71429,326.6479 -8.57143,-125.71429 60,-2.85714 -2.85715,134.28571 z"
       id="path3141"
       inkscape:connector-curvature="0" />
    <path
       style="fill:#333333;stroke:#000000;stroke-width:1px;stroke-linecap:butt;stroke-linejoin:miter;stroke-opacity:1"
       d="m -11.428571,369.50504 1668.571471,5.71429 -8.5715,-40 -1659.999971,-8.57143 z"
       id="path3143"
       inkscape:connector-curvature="0" />
    <path
       style="fill:#4d4d4d;stroke:#000000;stroke-width:1px;stroke-linecap:butt;stroke-linejoin:miter;stroke-opacity:1"
       d="m 402.85714,200.93361 2.85715,128.57143 48.57142,0 -5.71428,-125.71429 z"
       id="path3147"
       inkscape:connector-curvature="0" />
    <path
       style="fill:#000000;stroke:#000000;stroke-width:1px;stroke-linecap:butt;stroke-linejoin:miter;stroke-opacity:1"
       d="m -5.7142857,972.36218 139.9999957,0 0,91.42852 -137.1428528,-2.8571 z"
       id="path3149"
       inkscape:connector-curvature="0" />
    <path
       style="fill:#1a1a1a;stroke:#000000;stroke-width:1px;stroke-linecap:butt;stroke-linejoin:miter;stroke-opacity:1"
       d="m 130,886.6479 140,0 0,91.42856 -137.14286,-2.8571 z"
       id="path3149-8"
       inkscape:connector-curvature="0" />
    <path
       style="fill:#333333;stroke:#000000;stroke-width:1px;stroke-linecap:butt;stroke-linejoin:miter;stroke-opacity:1"
       d="m 261.42857,803.79076 140,0 0,91.42856 -137.14286,-2.8571 z"
       id="path3149-3"
       inkscape:connector-curvature="0" />
    <path
       style="fill:#333333;stroke:#000000;stroke-width:1px;stroke-linecap:butt;stroke-linejoin:miter;stroke-opacity:1"
       d="m 392.85714,718.07647 140,0 0,91.42856 -137.14286,-2.8571 z"
       id="path3149-3-3"
       inkscape:connector-curvature="0" />
    <path
       style="fill:#4d4d4d;stroke:#000000;stroke-width:1px;stroke-linecap:butt;stroke-linejoin:miter;stroke-opacity:1"
       d="m 532.85714,638.07647 140,0 0,91.42856 -137.14286,-2.8571 z"
       id="path3149-3-8"
       inkscape:connector-curvature="0" />
    <path
       style="fill:#4d4d4d;stroke:#000000;stroke-width:1px;stroke-linecap:butt;stroke-linejoin:miter;stroke-opacity:1"
       d="m 667.14285,558.07647 139.99996,0 0,91.42856 -137.14282,-2.8571 z"
       id="path3149-3-2"
       inkscape:connector-curvature="0" />
    <path
       style="fill:#666666;stroke:#000000;stroke-width:1px;stroke-linecap:butt;stroke-linejoin:miter;stroke-opacity:1"
       d="m 789.99997,478.07647 140,0 0,91.42856 -137.1428,-2.8571 z"
       id="path3149-3-89"
       inkscape:connector-curvature="0" />
    <path
       style="fill:#666666;stroke:#000000;stroke-width:1px;stroke-linecap:butt;stroke-linejoin:miter;stroke-opacity:1"
       d="m 930.00001,392.36219 139.99999,0 0,91.42856 -137.14289,-2.8571 z"
       id="path3149-3-32"
       inkscape:connector-curvature="0" />
    <path
       style="fill:#808080;stroke:#000000;stroke-width:1px;stroke-linecap:butt;stroke-linejoin:miter;stroke-opacity:1"
       d="m 1058.5714,329.50505 140,0 0,91.42856 -137.1429,-2.8571 z"
       id="path3149-3-4"
       inkscape:connector-curvature="0" />
    <path
       style="fill:#333333;stroke:#000000;stroke-width:1px;stroke-linecap:butt;stroke-linejoin:miter;stroke-opacity:1"
       d="M -8.5714286,332.36218 457.14286,326.6479 460,375.21933 -22.857143,366.6479 l 11.428572,-5.71429 z"
       id="path3298"
       inkscape:connector-curvature="0" />
    <path
       style="fill:#4d4d4d;stroke:#000000;stroke-width:1px;stroke-linecap:butt;stroke-linejoin:miter;stroke-opacity:1"
       d="m 505.71429,206.6479 5.71428,117.14285 51.42857,2.85715 -5.71428,-125.71429 z"
       id="path3306"
       inkscape:connector-curvature="0" />
    <path
       style="fill:#666666;stroke:#000000;stroke-width:1px;stroke-linecap:butt;stroke-linejoin:miter;stroke-opacity:1"
       d="m 628.57143,203.79075 2.85714,137.14286 45.71429,-2.85714 c 0,0 8.57143,-145.71429 -14.28572,-142.85714 -22.85714,2.85714 -34.28571,8.57142 -34.28571,8.57142 z"
       id="path3308"
       inkscape:connector-curvature="0" />
    <path
       style="fill:#808080;stroke:#000000;stroke-width:1px;stroke-linecap:butt;stroke-linejoin:miter;stroke-opacity:1"
       d="m 728.57143,206.6479 c 2.85714,134.28571 8.57143,128.57143 8.57143,128.57143 l 34.28571,0 -2.85714,-134.28572 z"
       id="path3310"
       inkscape:connector-curvature="0" />
    <path
       style="fill:#999999;stroke:#000000;stroke-width:1px;stroke-linecap:butt;stroke-linejoin:miter;stroke-opacity:1"
       d="m 820,203.79075 5.71429,131.42858 31.42857,-8.57143 -2.85715,-120 z"
       id="path3312"
       inkscape:connector-curvature="0" />
    <path
       style="fill:#b3b3b3;stroke:#000000;stroke-width:1px;stroke-linecap:butt;stroke-linejoin:miter;stroke-opacity:1"
       d="m 902.85714,203.79075 5.71429,137.14286 37.14286,-2.85714 c 0,0 11.42857,-142.85714 -2.85715,-137.14286 -14.28571,5.71429 -40,2.85714 -40,2.85714 z"
       id="path3314"
       inkscape:connector-curvature="0" />
    <path
       style="fill:#cccccc;stroke:#000000;stroke-width:1px;stroke-linecap:butt;stroke-linejoin:miter;stroke-opacity:1"
       d="m 1008.5714,203.79075 5.7143,148.57143 34.2857,-5.71428 c 0,0 14.2857,-157.14286 -2.8571,-145.71429 -17.1429,11.42857 -37.1429,2.85714 -37.1429,2.85714 z"
       id="path3316"
       inkscape:connector-curvature="0" />
    <path
       style="fill:#cccccc"
       id="path3330"
       d="m 1151.3178,206.27538 c -10.8821,3.60354 -22.1639,5.88561 -32.196,11.59721 70.5941,-37.1164 38.2104,-26.24294 30.5676,-16.09153 -0.099,0.13093 0.1297,-0.38969 0.2935,-0.39443 1.4953,-0.0433 2.9443,0.53182 4.419,0.78255 6.7283,0.84251 13.4597,1.18866 20.0835,-0.38661 0.532,-0.24865 2.1039,-1.04097 1.5961,-0.74594 -11.9237,6.92784 -24.0937,13.43875 -35.8496,20.64774 -0.327,0.20053 0.7738,0.8422 0.4558,1.05669 -0.4136,0.27896 -5.1151,-1.62797 -6.7438,-2.05114 -4.5159,-1.12128 -8.4576,-3.95224 -13.0036,-4.98225 -1.6483,-0.37345 -4.5366,-0.32351 -6.1687,-0.34793 -19.3986,0.0876 -42.601,21.95888 22.1202,-21.00563 5.8933,-0.27884 11.5098,-3.08158 17.0156,-5.08807 2.2156,-0.69219 4.7223,-1.36453 6.8004,-2.44657 0.7612,-0.39637 2.8587,-1.89709 2.1166,-1.46602 -34.4314,19.99968 -24.5744,29.0454 -37.2517,19.14945 -5.8411,-3.44511 -12.7556,-5.59333 -19.408,-3.60886 -10.1879,12.3616 -0.1501,-0.21997 33.8124,-18.96856 0.2451,-0.13529 -0.5775,1.01924 1.3558,2.51344 1.4862,1.14871 3.316,1.52271 5.0551,2.07604 5.3143,1.66606 10.9243,1.4015 16.3699,2.13843 -39.5717,28.10497 -24.4799,24.80088 -52.5687,24.68734 -7.744,-0.28664 -15.352,-0.052 -23.0127,1.00114 -9.3525,2.42515 -18.6876,4.21281 -28.3648,4.06122 -6.9566,-0.48996 -14.2075,-4.25219 -11.4497,-12.12504 28.2051,-25.2465 25.7953,-17.77486 43.269,-24.16263 4.4769,-1.63661 5.9547,-2.518 10.9098,-3.07616 7.6368,1.64843 10.3523,8.06259 10.5557,15.2206 -0.6363,3.24059 -1.553,7.46618 -4.6947,9.37969 -37.9008,23.08373 -24.5073,21.51519 -43.2858,22.92098 0,0 33.6217,-25.44285 33.6217,-25.44285 l 0,0 c 15.2569,-5.256 4.0002,-1.62435 -29.439,18.31574 -0.9763,0.58216 2.0562,-1.00658 2.9538,-1.70395 1.8281,-1.4203 2.094,-2.51569 3.0916,-4.51109 0.8887,-4.76964 -0.9079,-9.47609 -6.4912,-8.77813 -16.9841,4.32795 -46.1423,23.6391 18.7629,-14.51065 -8.3358,1.38336 4.7262,4.83365 6.0129,3.83399 9.6306,-0.42877 18.8654,-2.93144 28.3256,-4.60692 7.7451,-0.86398 15.518,-0.55263 23.3003,-0.54839 25.4869,0.0683 26.7531,-5.19611 -16.4173,24.66434 -5.5397,-0.86167 -11.1925,-1.28256 -16.49,-3.2709 -24.5581,-11.37968 2.8123,-30.04518 28.6746,-34.44938 7.7046,-0.0572 15.1709,2.03155 21.4431,6.61547 20.2487,18.93624 -24.4642,26.33303 -40.7711,33.03573 -6.2157,2.22875 -12.9269,5.21721 -19.4186,2.41417 23.7189,-18.27109 25.0461,-27.81514 47.8187,-26.82895 6.9814,0.84087 13.0939,3.95176 19.7383,6.07735 25.453,8.59107 1.8399,25.89709 -28.1738,30.35707 -7.018,0.68549 -14.1663,0.36859 -21.0789,-1.05302 -27.631,-8.96487 22.7645,-29.47862 32.2866,-34.52722 10.5776,-4.76292 21.9157,-7.30175 32.8378,-11.14338 0,0 -33.3862,25.77582 -33.3862,25.77582 z"
       inkscape:connector-curvature="0" />
    <path
       style="fill:#cccccc"
       id="path3332"
       d="m 1043.0875,208.70972 c -5.3999,-3.11805 -8.3485,-7.38334 -7.9739,-13.62983 0,0 38.3431,-18.21366 38.3431,-18.21366 l 0,0 c -3.1132,3.99704 1.7049,6.89374 5.069,8.5264 0,0 -35.4382,23.31709 -35.4382,23.31709 z"
       inkscape:connector-curvature="0" />
    <path
       style="fill:#cccccc"
       id="path3334"
       d="m 1168.115,204.53945 c 9.323,-1.74387 18.4722,-4.22605 27.8059,-5.91944 7.37,-2.32639 15.1309,-2.59504 22.2827,-5.56959 1.0561,-0.40943 4.147,-1.79828 3.1682,-1.2283 -11.4438,6.66404 -23.1668,12.84151 -34.5964,19.52983 -0.2252,0.13176 0.7481,0.0296 0.7271,0.28961 -0.032,0.40159 -0.4211,0.92585 -0.822,0.88614 -1.5826,-0.15676 -3.0196,-1.00469 -4.5551,-1.41876 -2.1993,-0.59309 -4.4289,-1.06744 -6.6434,-1.60116 -6.9123,-1.58449 -13.9673,-2.2462 -20.8828,-3.81259 -0.2222,-0.0503 -5.8951,-1.2427 -6.7059,-2.30813 -0.7957,-1.04551 -0.9086,-2.46557 -1.3629,-3.69835 12.9898,-7.6808 25.7691,-15.72954 38.9696,-23.0424 0.6793,-0.37631 9.7394,-2.05747 9.9594,-2.10181 6.1497,-1.23938 12.2806,-2.49539 18.4569,-3.59952 4.8857,-1.46154 10.1571,-1.70287 14.983,-3.39403 0.6884,-0.24126 2.5101,-1.48483 1.9055,-1.07644 -36.1554,24.42562 -21.5119,23.84439 -38.0036,24.0674 -3.1429,-0.29764 -6.3585,-0.10397 -9.2319,1.35425 -0.8665,0.43977 -3.2435,2.13634 -2.3963,1.6603 34.6273,-19.45702 42.4767,-30.56566 33.9127,-18.76633 6.457,5.06833 15.8013,6.84481 23.6712,8.48815 2.6235,1.29787 11.6229,1.48314 13.896,3.66472 0.9849,0.94531 2.657,5.06851 0.6189,6.29426 -12.9644,7.79721 -26.7239,14.18897 -40.0858,21.28345 -11.1243,2.53073 -22.5245,2.97108 -33.6831,5.28336 -18.2778,4.1876 -22.2068,17.73033 27.481,-17.50621 1.346,-0.95455 -1.3483,-3.66259 -0.3049,-4.94104 0.9843,-1.20618 3.1079,-0.20927 4.6544,-0.38861 2.1185,-0.24567 4.2243,-0.59062 6.3364,-0.88593 18.2501,-4.41737 36.5327,-9.07456 54.5106,-14.53852 1.2895,-0.66194 5.09,-2.76612 3.8685,-1.98583 -11.7881,7.53002 -23.8188,14.67668 -35.5828,22.24431 -0.9603,0.61775 -1.4862,1.87337 -2.5507,2.28649 -2.0859,0.80952 -4.413,0.75677 -6.5927,1.26202 -3.9545,0.91666 -13.8748,3.72828 -17.6736,4.78652 6.712,-6.76352 -15.6179,7.42214 -11.8685,5.26127 11.7486,-6.77116 23.283,-13.91539 35.1264,-20.51945 0.8715,-0.48597 1.9154,-0.72993 2.9125,-0.69171 2.6783,0.10268 5.2993,0.81915 7.9639,1.10867 3.6123,0.39252 7.2402,0.62451 10.8604,0.93676 22.985,2.50029 46.3868,-0.6657 69.234,3.00868 0.7968,0.45095 1.9897,0.52963 2.3904,1.35285 0.6972,1.4322 1.8945,3.84808 0.5772,4.74362 -12.6042,8.56869 -26.337,15.40416 -40.037,22.08235 -1.952,0.95152 -4.3221,0.4302 -6.4873,0.59636 -8.599,0.65992 -10.4897,0.64149 -19.6096,1.00319 -25.7489,0.74072 -51.5106,0.65678 -77.2641,1.16118 0.2337,-0.69804 -7.2424,1.00593 -7.9256,-1.60129 -4.4496,-16.98057 38.7542,-27.57241 56.5231,-31.69918 13.1974,-3.12089 26.0917,-7.46276 38.9181,-11.84427 0.8221,-0.23803 1.6262,-0.55027 2.4663,-0.71408 1.9307,-0.37653 1.7741,0.20124 3.9464,0.25371 6.4054,0.15471 12.9952,-0.38906 19.397,-0.4998 11.3706,-1.30323 22.8883,-2.45237 33.9791,-5.43448 13.4098,-3.60565 40.8248,-22.52557 -31.0086,18.9995 -0.2825,0.81026 -0.097,2.01563 -0.8476,2.43079 -1.7407,0.96229 -3.883,0.86499 -5.832,1.26178 -2.6021,0.52975 -5.218,0.98997 -7.8205,1.51769 -9.3218,1.89025 -18.4637,4.32497 -27.6764,6.67597 -8.6788,3.64553 -23.4519,2.81535 -30.903,8.50556 25.5267,-17.37572 26.3268,-23.35345 47.6562,-25.53017 5.3745,-1.95233 10.9279,-3.26142 16.338,-5.09062 0,0 -33.2055,25.72427 -33.2055,25.72427 l 0,0 c -5.6101,1.67556 -11.2028,3.527 -16.9764,4.55155 -3.6802,0.46928 -8.9835,1.98842 -12.5882,0.44679 -0.9799,-0.41909 -3.429,-1.1626 -2.6108,-1.84552 10.8891,-9.08863 23.0406,-16.54784 34.5609,-24.82176 10.0124,-2.77599 20.3575,-4.13196 30.3735,-6.91564 9.3033,-2.32912 18.5838,-4.72653 27.9949,-6.59341 2.2514,-0.44662 12.8151,-2.64442 15.558,-1.82545 2.0059,0.5989 3.2341,2.65886 4.8512,3.98829 -12.1992,7.52989 -24.176,15.43248 -36.5975,22.58966 -1.2823,0.73879 -2.8774,0.69593 -4.3275,0.991 -2.3231,0.47271 -4.6541,0.90703 -6.99,1.31189 -8.9853,1.55738 -18.0298,2.7201 -27.1299,3.35783 -8.5655,0.42862 -17.5191,0.0647 -25.8174,2.42087 -12.7925,3.91222 -25.4566,8.29086 -38.5365,11.18876 -2.607,0.69624 -5.2324,1.327 -7.821,2.08871 -2.3215,0.68311 -8.8971,3.6171 -6.9043,2.24422 9.9117,-6.8282 21.3948,-11.31241 30.8599,-18.74732 2.5753,-2.02292 -14.2199,-3.11612 1.2938,-1.52361 25.64,0.33824 51.2967,0.1062 76.911,-1.16591 6.5656,-0.46644 13.5097,-0.79309 20.0473,-1.82776 2.1948,-0.34736 8.3339,-2.68484 6.5161,-1.40685 -40.287,28.32322 -42.175,11.37253 -29.4419,22.14395 0.3095,0.26183 -0.7147,-0.3829 -1.072,-0.57435 -8.8968,-1.83444 -17.4418,-1.91271 -26.5378,-2.07993 -13.8601,-0.2548 -27.7237,-0.49362 -41.5693,-1.22514 -2.9203,-0.222 -16.8237,-0.98707 -20.4293,-2.25019 -2.3237,-0.81403 -8.0024,-2.24468 -6.2355,-3.95939 15.9105,-15.44094 28.7628,-23.28028 47.374,-28.57992 4.7566,-1.296 13.4279,-3.7369 18.2722,-4.74562 2.4233,-0.50462 4.8606,-1.30212 7.3326,-1.17381 2.0543,0.10664 7.3998,0.46877 5.8843,1.85986 -23.1224,21.22523 -22.3458,20.57044 -38.3456,25.76094 -18.2921,4.86732 -36.4815,10.26908 -54.9997,14.18103 -0.4851,0.0671 -11.3568,1.64285 -11.819,1.45975 -2.1881,-0.86675 -7.1351,-3.18082 -5.3045,-4.65993 18.3243,-14.80531 27.7563,-19.51803 45.5105,-23.1055 11.3189,-1.94054 22.8381,-2.74999 33.9565,-5.77529 -11.0219,6.51953 -22.5042,12.31712 -33.0659,19.5586 -0.5097,0.34948 6.3308,2.31758 3.854,2.04852 -0.7883,-0.0856 -1.4492,-0.65222 -2.204,-0.89513 -3.863,-1.24312 -6.6404,-1.71945 -10.7449,-2.61353 -6.9431,-1.63082 -20.3781,-4.63278 -25.3901,-10.06877 -0.8948,-0.9705 -1.4124,-2.23053 -2.1186,-3.34579 -0.076,-1.05662 -1.0908,-2.5566 -0.227,-3.16987 16.442,-11.67388 30.6914,-26.79974 50.7077,-24.18688 16.2218,5.05459 4.8563,0.61648 -30.1311,26.41571 -0.5316,0.39198 -1.2973,0.24882 -1.9444,0.38126 -4.9398,1.01105 -9.8659,2.08947 -14.8207,3.02667 -7.9489,1.46737 -16.073,2.81904 -23.8234,5.16096 -13.6872,4.1358 -30.6339,17.85316 28.7144,-18.9875 -0.7248,-0.74159 -1.78,-1.26572 -2.1744,-2.22476 -0.2193,-0.53317 1.0182,0.55231 1.5635,0.73928 1.2809,0.43918 2.5843,0.81735 3.9009,1.13425 6.8863,1.65759 13.9503,2.34078 20.8361,4.00522 1.8774,0.44061 10.3631,2.2182 12.557,3.45065 2.7859,1.56497 5.2256,5.29791 3.9575,6.15447 -28.2674,19.09343 -24.995,17.704 -41.2228,23.46771 -7.4019,2.08331 -15.0759,3.04773 -22.5236,4.97781 -9.3541,1.84137 -18.6244,4.10207 -27.8991,6.29834 0,0 33.6189,-25.70699 33.6189,-25.70699 z"
       inkscape:connector-curvature="0" />
    <path
       style="fill:#b3b3b3;stroke:#000000;stroke-width:1px;stroke-linecap:butt;stroke-linejoin:miter;stroke-opacity:1"
       d="m 1328.5714,192.36218 0,157.14286 37.1429,-8.57143 c 0,0 11.4286,-134.28571 -2.8572,-145.71428 -14.2857,-11.42858 -34.2857,-2.85715 -34.2857,-2.85715 z"
       id="path3336"
       inkscape:connector-curvature="0" />
    <path
       style="fill:#666666;stroke:#000000;stroke-width:1px;stroke-linecap:butt;stroke-linejoin:miter;stroke-opacity:1"
       d="m 1048.5714,186.6479 c -8.5714,20 2.8572,25.71428 2.8572,25.71428 L -17.142857,186.6479 -5.7142857,175.21933 z"
       id="path3338"
       inkscape:connector-curvature="0" />
    <path
       style="fill:none;stroke:#000000;stroke-width:1px;stroke-linecap:butt;stroke-linejoin:miter;stroke-opacity:1"
       d="M 1322.8571,200.93361 z"
       id="path3340"
       inkscape:connector-curvature="0" />
    <path
       style="fill:#666666;stroke:#000000;stroke-width:1px;stroke-linecap:butt;stroke-linejoin:miter;stroke-opacity:1"
       d="m 1334.2857,195.21933 c 0,0 -14.2857,14.28571 -2.8571,14.28571 11.4285,0 322.8571,0 322.8571,0 l -8.5714,-11.42857 z"
       id="path3342"
       inkscape:connector-curvature="0" />
    <path
       style="fill:#999999;stroke:#000000;stroke-width:1px;stroke-linecap:butt;stroke-linejoin:miter;stroke-opacity:1"
       d="m 1420,215.21933 2.8571,120 40,-2.85715 -5.7142,-122.85714 z"
       id="path3344"
       inkscape:connector-curvature="0" />
    <path
       style="fill:#808080;stroke:#000000;stroke-width:1px;stroke-linecap:butt;stroke-linejoin:miter;stroke-opacity:1"
       d="m 1505.7143,218.07647 0,111.42857 45.7143,0 -8.5715,-117.14286 z"
       id="path3346"
       inkscape:connector-curvature="0" />
    <path
       style="fill:#666666;stroke:#000000;stroke-width:1px;stroke-linecap:butt;stroke-linejoin:miter;stroke-opacity:1"
       d="m 1588.5714,209.50504 0,128.57143 45.7143,-5.71429 2.8572,-131.42857 z"
       id="path3348"
       inkscape:connector-curvature="0" />
    <path
       style="fill:#333333"
       id="path3350"
       d="m 239.54439,339.90049 c 9.65306,0.76481 18.77394,4.06352 28.13434,6.32943 7.6659,2.5502 15.53533,4.07055 23.56451,4.77571 1.15242,-0.0993 2.30485,-0.19855 3.45728,-0.29783 0,0 -34.06779,24.85699 -34.06779,24.85699 l 0,0 c -1.24861,-0.0508 -2.49723,-0.10154 -3.74584,-0.15231 -8.10424,-1.01651 -15.97032,-2.98833 -23.78511,-5.35526 -9.14713,-2.44572 -18.26063,-5.53855 -27.86148,-5.23335 0,0 34.30409,-24.92338 34.30409,-24.92338 z"
       inkscape:connector-curvature="0" />
    <path
       style="fill:#333333"
       id="path3352"
       d="m 637.17823,333.69527 c 9.98883,-0.92387 19.9996,-1.55436 30.02035,-1.99825 7.5133,-0.30282 14.99766,0.93698 22.47143,1.61192 0,0 -34.23191,24.38189 -34.23191,24.38189 l 0,0 c -7.3439,-0.72373 -14.71255,-1.70249 -22.10634,-1.16345 -10.04916,0.42511 -20.09773,1.05055 -30.07253,2.38962 0,0 33.919,-25.22173 33.919,-25.22173 z"
       inkscape:connector-curvature="0" />
    <path
       style="fill:#333333"
       id="path3354"
       d="m 739.36399,330.74657 c 8.48072,-1.03717 16.99948,-1.60488 25.53479,-1.90653 8.83642,-0.7949 17.50305,0.21137 26.25722,1.20183 8.51942,2.14272 16.81943,4.98094 25.33769,7.12417 0,0 -34.49617,23.73184 -34.49617,23.73184 l 0,0 c -8.34048,-2.28892 -16.55595,-5.16503 -25.11955,-6.52275 -8.60538,-0.92621 -17.19009,-1.38815 -25.84571,-0.70506 -8.56917,0.43946 -17.14004,1.06057 -25.61156,2.48134 0,0 33.94329,-25.40484 33.94329,-25.40484 z"
       inkscape:connector-curvature="0" />
    <path
       style="fill:#333333"
       id="path3356"
       d="m 922.717,331.34817 c 9.09777,0.17186 18.1989,0.12742 27.29792,0.0926 7.40704,-0.0577 14.81537,0.0355 22.22173,-0.0955 16.22088,-0.5499 15.11332,-6.88448 -34.04848,24.93967 -0.38124,0.2468 -7.25327,-0.0605 -8.01415,-0.0632 -6.09632,1.27871 -11.58676,4.20603 -17.92194,4.2267 -4.67676,0.0422 -6.08783,-4.89124 -9.79033,-6.61317 -1.45111,-0.67487 -3.56811,-0.71839 -5.08001,-0.85915 -7.08586,-0.26362 -14.18352,-0.008 -21.27145,0.11693 0,0 34.00415,-24.80111 34.00415,-24.80111 l 0,0 c 7.30276,-0.14015 14.6747,-0.62603 21.92495,0.49631 2.97914,0.82131 3.60077,0.73548 6.17329,2.42003 2.85228,1.86774 4.2081,4.69188 8.0221,4.06103 6.08631,-1.2093 11.85915,-3.96444 18.1587,-3.90946 2.0241,-0.007 3.7211,-0.01 5.73854,-0.0301 0.81659,-0.008 3.07873,-0.5539 2.44967,-0.0331 -36.46493,30.18698 -18.95619,25.58212 -34.60455,24.93967 -7.31862,-0.13605 -14.63952,-0.0341 -21.95887,-0.0955 -9.18401,-0.0355 -18.36995,-0.0766 -27.55277,0.0926 0,0 34.2515,-24.88517 34.2515,-24.88517 z"
       inkscape:connector-curvature="0" />
    <path
       style="fill:#333333"
       id="path3358"
       d="m 1019.1838,335.89292 c 8.4442,-0.95104 16.928,-1.30033 25.4167,-1.53099 6.6973,-0.28791 13.6743,0.71417 20.0016,-1.98716 -38.0259,26.96049 -24.4595,23.47031 -50.3804,23.61782 -5.2644,-0.53768 -13.4166,2.17566 -17.23762,-2.47094 -7.02332,-17.98015 26.18612,-24.50428 42.42352,-24.8248 0,0 -34.0687,25.1109 -34.0687,25.1109 l 0,0 c -0.9282,0.10968 -1.8623,0.17796 -2.7847,0.32905 -0.676,0.11073 -2.59323,0.80454 -2.0039,0.45532 36.0383,-21.35598 43.7768,-9.499 33.0023,-23.19313 -0.131,-0.18534 -0.6145,-0.50563 -0.3931,-0.556 0.5331,-0.12133 1.0725,0.22323 1.6166,0.27755 0.9088,0.0908 1.8223,0.13967 2.7355,0.15702 0.4282,0.008 6.9805,-0.0743 7.4124,-0.0774 1.1453,-0.008 2.2907,-0.005 3.4361,-0.008 26.4141,0.17149 19.79,1.95508 -17.469,27.08925 -6.7209,0.89628 -13.4765,0.78015 -20.2441,0.90286 -8.3781,0.26756 -16.88633,0.48529 -25.04608,2.56605 0,0 33.58288,-25.85718 33.58288,-25.85718 z"
       inkscape:connector-curvature="0" />
    <path
       style="fill:#333333"
       id="path3364"
       d="m 1362.8752,333.06995 c 2.3466,1.52759 5.6352,2.3251 7.5232,4.54368 9.5264,11.1944 -28.1829,22.1501 -36.3844,26.94919 0,0 33.4383,-26.32996 33.4383,-26.32996 l 0,0 c -11.6326,6.97785 -23.6011,13.42413 -34.8978,20.93354 -2.6601,1.76823 1.9849,1.15457 1.9574,1.12762 -1.8703,-1.82987 -4.617,-2.60722 -6.8882,-3.73188 0,0 35.2515,-23.49219 35.2515,-23.49219 z"
       inkscape:connector-curvature="0" />
    <path
       style="fill:#333333"
       id="path3366"
       d="m 1326.1699,361.96673 c -23.7548,-1.08961 -25.3043,8.67879 23.7151,-24.94283 3.2131,-0.23023 14.0372,-0.13101 15.5342,-2.93764 -32.8436,28.41038 -24.2094,24.21211 -47.3441,24.99064 -15.2054,1.99054 -2.495,0.41983 35.8808,-24.94615 1.1881,-0.78528 2.8173,-0.57746 4.1039,-1.18798 12.7547,-6.05228 -23.538,15.59536 -35.2933,23.41377 -5.7206,-0.50008 -11.4818,-0.44515 -17.2174,-0.28122 -15.682,0.92804 -27.1807,14.68323 34.0424,-24.7984 0.042,-0.0271 4.5897,0.10475 5.036,0.0625 0.9042,-0.0855 1.7818,-0.35318 2.6726,-0.52978 3.6607,-1.42826 1.7944,-0.73626 5.6007,-2.07089 0,0 -33.4059,25.89607 -33.4059,25.89607 l 0,0 c -4.0254,1.18205 -1.98,0.70046 -6.1371,1.44045 -3.7543,0.16265 -2.1442,0.1411 -5.7199,0.11743 -0.8217,-0.005 -3.0944,0.50695 -2.465,-0.0214 38.0338,-31.93474 18.69,-25.46087 34.6129,-25.01349 6.0946,0.0781 12.3981,-0.36278 18.2605,1.58121 -10.8117,8.5875 -21.4859,17.35108 -32.4351,25.76249 -0.9098,0.69891 -2.2676,0.36519 -3.411,0.45932 -17.7597,1.46208 16.1049,-26.08883 30.3287,-24.87973 23.4899,1.19517 18.3119,-1.55625 -20.448,26.70173 -5.3747,-0.83954 -11.0843,2.13296 -16.5535,1.20337 37.6537,-29.08092 19.5017,-24.45277 44.9466,-24.94283 0,0 -34.3041,24.92338 -34.3041,24.92338 z"
       inkscape:connector-curvature="0" />
    <path
       style="fill:#333333"
       id="path3374"
       d="m 1058.4003,225.88417 c -0.046,9.17634 -1.349,18.29757 -2.0749,27.44009 -0.6094,8.58899 -2.0657,17.08225 -2.8502,25.65874 -0.6399,7.44192 -0.7376,14.91358 -0.7997,22.37799 -0.035,7.92863 -0.02,15.8574 -0.01,23.78608 0,0 -2.4995,1.27387 -2.4995,1.27387 l 0,0 c -0.01,-7.92831 -0.03,-15.85667 0,-23.78495 0.064,-7.47256 0.1568,-14.95278 0.7976,-22.40287 0.7815,-8.57669 2.2338,-17.06925 2.8539,-25.65696 0.7286,-9.13185 2.0401,-18.24511 2.066,-27.41061 0,0 2.5149,-1.28138 2.5149,-1.28138 z"
       inkscape:connector-curvature="0" />
    <path
       style="fill:#333333"
       id="path3376"
       d="m 1042.5464,331.0566 c -4.994,1.68133 -10.1733,2.59238 -15.3588,3.43115 0,0 2.24,-1.6834 2.24,-1.6834 l 0,0 c 5.1857,-0.85115 10.3641,-1.78132 15.3534,-3.48382 0,0 -2.2346,1.73607 -2.2346,1.73607 z"
       inkscape:connector-curvature="0" />
    <path
       style="fill:#333333"
       id="path3378"
       d="m 1010.1711,330.26876 c 0.024,-10.6398 0.019,-21.27966 0.013,-31.91948 -0.01,-8.32413 -0,-16.64826 -0.01,-24.97239 2e-4,-7.40556 -0,-14.81113 -0,-22.21669 -0.1143,-7.60039 0.2995,-15.21388 -0.3342,-22.79345 -0.1564,-1.39821 -0.3127,-2.79642 -0.4691,-4.19463 0,0 2.4837,-1.30068 2.4837,-1.30068 l 0,0 c 0.1581,1.40015 0.3163,2.8003 0.4745,4.20045 0.6498,7.58501 0.2398,15.20541 0.3493,22.81234 0,7.40612 -0,14.81224 -0,22.21836 -0,8.32618 0,16.65236 -0.01,24.97854 -0.01,10.63542 -0.011,21.27086 0.013,31.90626 0,0 -2.5149,1.28137 -2.5149,1.28137 z"
       inkscape:connector-curvature="0" />
    <path
       style="fill:#333333"
       id="path3380"
       d="m 1014.5965,205.09634 c 4.3898,-1.29562 2.1029,-0.6599 6.8653,-1.89026 0,0 -2.2296,1.70818 -2.2296,1.70818 l 0,0 c -4.764,1.24612 -2.4755,0.60102 -6.8704,1.91814 0,0 2.2347,-1.73606 2.2347,-1.73606 z"
       inkscape:connector-curvature="0" />
    <path
       style="fill:#333333"
       id="path3382"
       d="m 1021.0187,211.53268 c 9.6152,-0.0749 19.1408,1.00427 28.2526,4.0853 6.6677,2.61574 10.9689,7.48075 12.9074,14.26266 0,0 -2.4718,1.34646 -2.4718,1.34646 l 0,0 c -1.8759,-6.7159 -6.1593,-11.4775 -12.7465,-14.04207 -9.1058,-3.04395 -18.6282,-4.09512 -28.2252,-3.99334 0,0 2.2835,-1.65901 2.2835,-1.65901 z"
       inkscape:connector-curvature="0" />
    <path
       style="fill:#333333;stroke:#000000;stroke-width:1px;stroke-linecap:butt;stroke-linejoin:miter;stroke-opacity:1"
       d="m 131.42857,1032.3622 1517.14283,-5.7143 -2.8571,31.4286 -1514.28573,2.8571 z"
       id="path3384"
       inkscape:connector-curvature="0" />
    <path
       style="fill:#333333"
       id="path3390"
       d="m 1037.5519,218.85001 c -1.3548,-0.91986 -2.7095,-1.83972 -4.0642,-2.75958 0,0 16.4675,-10.56101 16.4675,-10.56101 l 0,0 c 1.3892,0.88053 2.7784,1.76106 4.1676,2.64159 0,0 -16.5709,10.679 -16.5709,10.679 z"
       inkscape:connector-curvature="0" />
  </g>
</svg>
