<?xml version="1.0" encoding="UTF-8" standalone="no"?>
<!-- Created with Inkscape (http://www.inkscape.org/) -->

<svg
   xmlns:dc="http://purl.org/dc/elements/1.1/"
   xmlns:cc="http://creativecommons.org/ns#"
   xmlns:rdf="http://www.w3.org/1999/02/22-rdf-syntax-ns#"
   xmlns:svg="http://www.w3.org/2000/svg"
   xmlns="http://www.w3.org/2000/svg"
   xmlns:sodipodi="http://sodipodi.sourceforge.net/DTD/sodipodi-0.dtd"
   xmlns:inkscape="http://www.inkscape.org/namespaces/inkscape"
   width="744.09448819"
   height="1052.3622047"
   id="svg3483"
   version="1.1"
   inkscape:version="0.48.4 r9939"
   sodipodi:docname="GladiusCityBack.svg">
  <defs
     id="defs3485" />
  <sodipodi:namedview
     id="base"
     pagecolor="#ffffff"
     bordercolor="#666666"
     borderopacity="1.0"
     inkscape:pageopacity="0.0"
     inkscape:pageshadow="2"
     inkscape:zoom="0.35"
     inkscape:cx="152.52277"
     inkscape:cy="520"
     inkscape:document-units="px"
     inkscape:current-layer="layer1"
     showgrid="false"
     inkscape:window-width="1375"
     inkscape:window-height="876"
     inkscape:window-x="65"
     inkscape:window-y="24"
     inkscape:window-maximized="1" />
  <metadata
     id="metadata3488">
    <rdf:RDF>
      <cc:Work
         rdf:about="">
        <dc:format>image/svg+xml</dc:format>
        <dc:type
           rdf:resource="http://purl.org/dc/dcmitype/StillImage" />
        <dc:title></dc:title>
      </cc:Work>
    </rdf:RDF>
  </metadata>
  <g
     inkscape:label="Layer 1"
     inkscape:groupmode="layer"
     id="layer1">
    <path
       style="fill:#ffff00;stroke:#000000;stroke-width:1px;stroke-linecap:butt;stroke-linejoin:miter;stroke-opacity:1"
       d="m -474.28571,493.79074 0,45.71429 45.71428,2.85714 0,-48.57143 z"
       id="path3495-45-86"
       inkscape:connector-curvature="0" />
    <path
       style="fill:#ffff00;stroke:#000000;stroke-width:1px;stroke-linecap:butt;stroke-linejoin:miter;stroke-opacity:1"
       d="m -165.71428,1033.7908 0,45.7142 45.71428,2.8572 0,-48.5714 z"
       id="path3495-45-2"
       inkscape:connector-curvature="0" />
    <rect
       style="fill:#4d4d4d"
       id="rect3491"
       width="1994.2858"
       height="1042.8572"
       x="-1185.7144"
       y="55.21933" />
    <path
       style="fill:#000000;stroke:#000000;stroke-width:1px;stroke-linecap:butt;stroke-linejoin:miter;stroke-opacity:1"
       d="m -977.14286,746.6479 -14.28571,360 160,0 11.42857,-360 z"
       id="path3493"
       inkscape:connector-curvature="0" />
    <path
       style="fill:#ffff00;stroke:#000000;stroke-width:1px;stroke-linecap:butt;stroke-linejoin:miter;stroke-opacity:1"
       d="m -965.71428,775.21932 0,45.71429 45.71428,2.85714 0,-48.57143 z"
       id="path3495"
       inkscape:connector-curvature="0" />
    <path
       style="fill:#ffff00;stroke:#000000;stroke-width:1px;stroke-linecap:butt;stroke-linejoin:miter;stroke-opacity:1"
       d="m -888.57142,779.50504 0,45.71429 45.71428,2.85714 0,-48.57143 z"
       id="path3495-1"
       inkscape:connector-curvature="0" />
    <path
       style="fill:#ffff00;stroke:#000000;stroke-width:1px;stroke-linecap:butt;stroke-linejoin:miter;stroke-opacity:1"
       d="m -968.57142,885.21932 0,45.71429 45.71428,2.85714 0,-48.57143 z"
       id="path3495-5"
       inkscape:connector-curvature="0" />
    <path
       style="fill:#ffff00;stroke:#000000;stroke-width:1px;stroke-linecap:butt;stroke-linejoin:miter;stroke-opacity:1"
       d="m -894.28571,990.93361 0,45.71429 45.71428,2.8571 0,-48.57139 z"
       id="path3495-4"
       inkscape:connector-curvature="0" />
    <path
       style="fill:#ffff00;stroke:#000000;stroke-width:1px;stroke-linecap:butt;stroke-linejoin:miter;stroke-opacity:1"
       d="m -971.42856,988.07647 0,45.71433 45.71428,2.8571 0,-48.57143 z"
       id="path3495-51"
       inkscape:connector-curvature="0" />
    <path
       style="fill:#ffff00;stroke:#000000;stroke-width:1px;stroke-linecap:butt;stroke-linejoin:miter;stroke-opacity:1"
       d="m -894.28571,885.21933 0,45.71429 45.71428,2.85714 0,-48.57143 z"
       id="path3495-2"
       inkscape:connector-curvature="0" />
    <path
       style="fill:#000000;stroke:#000000;stroke-width:1px;stroke-linecap:butt;stroke-linejoin:miter;stroke-opacity:1"
       d="M -682.85714,458.07647 -694.28571,1103.7908 -420,1100.9336 -428.57143,455.21933 z"
       id="path3543"
       inkscape:connector-curvature="0" />
    <path
       style="fill:#ffff00;stroke:#000000;stroke-width:1px;stroke-linecap:butt;stroke-linejoin:miter;stroke-opacity:1"
       d="m -517.14285,839.50504 0,45.71429 45.71428,2.85714 0,-48.57143 z"
       id="path3495-45"
       inkscape:connector-curvature="0" />
    <path
       style="fill:#ffff00;stroke:#000000;stroke-width:1px;stroke-linecap:butt;stroke-linejoin:miter;stroke-opacity:1"
       d="m -662.85714,968.07647 0,45.71433 45.71428,2.8571 0,-48.57143 z"
       id="path3495-10"
       inkscape:connector-curvature="0" />
    <path
       style="fill:#ffff00;stroke:#000000;stroke-width:1px;stroke-linecap:butt;stroke-linejoin:miter;stroke-opacity:1"
       d="m -651.42857,499.50504 0,45.71429 45.71428,2.85714 0,-48.57143 z"
       id="path3495-8"
       inkscape:connector-curvature="0" />
    <path
       style="fill:#ffff00;stroke:#000000;stroke-width:1px;stroke-linecap:butt;stroke-linejoin:miter;stroke-opacity:1"
       d="m -648.57143,728.07646 0,45.71429 45.71428,2.85714 0,-48.57143 z"
       id="path3495-3"
       inkscape:connector-curvature="0" />
    <path
       style="fill:#ffff00;stroke:#000000;stroke-width:1px;stroke-linecap:butt;stroke-linejoin:miter;stroke-opacity:1"
       d="m -505.71428,1048.0765 0,45.7143 45.71428,2.8571 0,-48.5714 z"
       id="path3495-9"
       inkscape:connector-curvature="0" />
    <path
       style="fill:#ffff00;stroke:#000000;stroke-width:1px;stroke-linecap:butt;stroke-linejoin:miter;stroke-opacity:1"
       d="m -514.28571,602.36218 0,45.71429 45.71428,2.85714 0,-48.57143 z"
       id="path3495-14"
       inkscape:connector-curvature="0" />
    <path
       style="fill:#000000;stroke:#000000;stroke-width:1px;stroke-linecap:butt;stroke-linejoin:miter;stroke-opacity:1"
       d="m -400,712.36218 -2.85714,385.71432 168.57143,5.7143 -2.85715,-394.28576 z"
       id="path3594"
       inkscape:connector-curvature="0" />
    <path
       style="fill:#ffff00;stroke:#000000;stroke-width:1px;stroke-linecap:butt;stroke-linejoin:miter;stroke-opacity:1"
       d="m -371.42857,845.21932 0,45.71429 45.71428,2.85714 0,-48.57143 z"
       id="path3495-7"
       inkscape:connector-curvature="0" />
    <path
       style="fill:#ffff00;stroke:#000000;stroke-width:1px;stroke-linecap:butt;stroke-linejoin:miter;stroke-opacity:1"
       d="m -368.57143,730.93361 0,45.71429 45.71428,2.85714 0,-48.57143 z"
       id="path3495-21"
       inkscape:connector-curvature="0" />
    <path
       style="fill:#ffff00;stroke:#000000;stroke-width:1px;stroke-linecap:butt;stroke-linejoin:miter;stroke-opacity:1"
       d="m -305.71428,870.93361 0,45.71429 45.71428,2.85714 0,-48.57143 z"
       id="path3495-42"
       inkscape:connector-curvature="0" />
    <path
       style="fill:#ffff00;stroke:#000000;stroke-width:1px;stroke-linecap:butt;stroke-linejoin:miter;stroke-opacity:1"
       d="m -317.14286,988.07646 0,45.71434 45.71428,2.8571 0,-48.57144 z"
       id="path3495-77"
       inkscape:connector-curvature="0" />
    <path
       style="fill:#ffff00;stroke:#000000;stroke-width:1px;stroke-linecap:butt;stroke-linejoin:miter;stroke-opacity:1"
       d="m -300,765.21933 0,45.71429 45.71428,2.85714 0,-48.57143 z"
       id="path3495-72"
       inkscape:connector-curvature="0" />
    <path
       style="fill:#ffff00;stroke:#000000;stroke-width:1px;stroke-linecap:butt;stroke-linejoin:miter;stroke-opacity:1"
       d="m -374.28571,970.9336 0,45.7143 45.71428,2.8571 0,-48.5714 z"
       id="path3495-28"
       inkscape:connector-curvature="0" />
    <path
       style="fill:#000000;stroke:#000000;stroke-width:1px;stroke-linecap:butt;stroke-linejoin:miter;stroke-opacity:1"
       d="m -808.57143,938.07647 -5.71429,165.71433 68.57143,-2.8572 -2.85714,-159.99999 z"
       id="path3652"
       inkscape:connector-curvature="0" />
    <path
       style="fill:#000000;stroke:#000000;stroke-width:1px;stroke-linecap:butt;stroke-linejoin:miter;stroke-opacity:1"
       d="m -174.28571,838.07647 0,265.71433 97.142849,0 -8.57142,-268.57148 z"
       id="path3654"
       inkscape:connector-curvature="0" />
    <path
       style="fill:#ffff00;stroke:#000000;stroke-width:0.58406276px;stroke-linecap:butt;stroke-linejoin:miter;stroke-opacity:1"
       d="m -143.06511,867.8685 0,24.59318 28.98737,1.53705 0,-26.13023 z"
       id="path3495-397"
       inkscape:connector-curvature="0" />
    <path
       style="fill:#ffff00;stroke:#000000;stroke-width:0.75762826px;stroke-linecap:butt;stroke-linejoin:miter;stroke-opacity:1"
       d="m -148.69262,939.38386 0,29.80804 40.24238,1.8629 0,-31.67094 z"
       id="path3495-397-6"
       inkscape:connector-curvature="0" />
    <path
       style="fill:#ffff00;stroke:#000000;stroke-width:0.57786739px;stroke-linecap:butt;stroke-linejoin:miter;stroke-opacity:1"
       d="m -125.92535,1002.1511 0,21.9099 31.8507,1.3694 0,-23.2793 z"
       id="path3495-39"
       inkscape:connector-curvature="0" />
    <path
       style="fill:#1a1a1a;stroke:#000000;stroke-width:1px;stroke-linecap:butt;stroke-linejoin:miter;stroke-opacity:1"
       d="m -285.71429,709.50504 -5.71428,-322.85714 142.85714,-8.57143 0,457.14286 -91.42857,-2.85715 0,-117.14285 z"
       id="path3674"
       inkscape:connector-curvature="0" />
    <path
       style="fill:#1a1a1a;stroke:#000000;stroke-width:1px;stroke-linecap:butt;stroke-linejoin:miter;stroke-opacity:1"
       d="m -237.14286,829.50504 62.85715,2.85714 2.85714,271.42862 -62.85714,-5.7143 z"
       id="path3676"
       inkscape:connector-curvature="0" />
    <path
       style="fill:#ffff00;stroke:#000000;stroke-width:1px;stroke-linecap:butt;stroke-linejoin:miter;stroke-opacity:1"
       d="m -194.28571,730.93361 0,45.71429 45.71428,2.85714 0,-48.57143 z"
       id="path3495-45-7"
       inkscape:connector-curvature="0" />
    <path
       style="fill:#ffff00;stroke:#000000;stroke-width:1px;stroke-linecap:butt;stroke-linejoin:miter;stroke-opacity:1"
       d="m -268.57143,433.79075 0,45.71429 45.71428,2.85714 0,-48.57143 z"
       id="path3495-45-5"
       inkscape:connector-curvature="0" />
    <path
       style="fill:#ffff00;stroke:#000000;stroke-width:1px;stroke-linecap:butt;stroke-linejoin:miter;stroke-opacity:1"
       d="m -205.71428,525.21932 0,45.71429 45.71428,2.85714 0,-48.57143 z"
       id="path3495-45-8"
       inkscape:connector-curvature="0" />
    <path
       style="fill:#ffff00;stroke:#000000;stroke-width:1px;stroke-linecap:butt;stroke-linejoin:miter;stroke-opacity:1"
       d="m -274.28571,648.07646 0,45.71429 45.71428,2.85714 0,-48.57143 z"
       id="path3495-45-4"
       inkscape:connector-curvature="0" />
    <path
       style="fill:#ffff00;stroke:#000000;stroke-width:0.43149394px;stroke-linecap:butt;stroke-linejoin:miter;stroke-opacity:1"
       d="m -238.11037,799.50992 1.86894,33.05206 11.49468,-4.90649 -1.98575,-35.11782 z"
       id="path3495-6"
       inkscape:connector-curvature="0" />
    <path
       style="fill:#333333;stroke:#000000;stroke-width:1px;stroke-linecap:butt;stroke-linejoin:miter;stroke-opacity:1"
       d="m -517.14286,455.21933 0,-342.85715 171.42857,-2.85714 5.71429,602.85714 -51.42857,5.71429 -31.42857,2.85714 -8.57143,-274.28571 z"
       id="path3731"
       inkscape:connector-curvature="0" />
    <path
       style="fill:#333333"
       id="path3733"
       d="m -483.55959,440.84136 c 9.29176,-0.0108 18.54294,2.03666 27.50203,4.37965 7.50045,2.27418 15.25241,3.36874 23.04779,3.91435 7.41802,0.38214 14.84965,0.35871 22.27527,0.35749 0,0 -15.89155,11.54554 -15.89155,11.54554 l 0,0 c -7.46334,-0.003 -14.93489,0.0479 -22.38553,-0.464 -7.85078,-0.65946 -15.62463,-1.95862 -23.18338,-4.23303 -8.93632,-2.21453 -18.09059,-4.24642 -27.34866,-3.88692 0,0 15.98403,-11.61308 15.98403,-11.61308 z"
       inkscape:connector-curvature="0" />
    <path
       style="fill:#333333"
       id="path3735"
       d="m -481.05553,452.35211 c -4.67544,-8.52777 -11.63119,-8.90232 -20.26291,-6.81802 -1.45942,0.59009 -2.96815,1.07051 -4.37827,1.77028 -1.53124,0.75987 -5.93631,3.39015 -4.4221,2.59688 4.38864,-2.29912 8.55384,-5.03289 13.0489,-7.1163 1.48647,-0.68896 -3.20857,1.92532 -4.03118,4.99612 4.59862,1.53484 9.55182,2.35711 14.35844,3.13332 7.07481,1.05491 14.23514,1.22373 21.37424,1.34757 8.53448,-0.3771 16.78561,-2.6286 25.15227,-4.14593 8.1536,-1.11944 16.38338,-1.37524 24.60071,-1.51639 7.04031,-0.37483 13.85023,-2.11243 20.71389,-3.57173 0,0 -15.65016,11.87861 -15.65016,11.87861 l 0,0 c -6.91967,1.46747 -13.83649,3.04118 -20.93997,3.27422 -8.1594,0.17128 -16.34512,0.45503 -24.41408,1.77701 -8.42506,1.57594 -16.79662,3.71154 -25.41756,3.8449 -7.19721,-0.17808 -14.41617,-0.41096 -21.53434,-1.58223 -5.19225,-0.89347 -12.57086,-1.24222 -16.01031,-5.55384 -0.083,-2.79519 1.06304,-5.0534 3.56792,-6.68321 9.19793,-5.98463 18.91822,-12.81224 29.58928,-16.26936 9.53265,-1.55398 16.72711,0.0181 21.85857,8.84279 0,0 -17.20334,9.79531 -17.20334,9.79531 z"
       inkscape:connector-curvature="0" />
    <path
       style="fill:#333333"
       id="path3737"
       d="m -441.74102,432.91746 c -6.01942,1.30301 -12.05195,2.9018 -17.79083,5.17034 -6.42382,2.5393 -15.84131,8.38358 11.62743,-6.87543 -0.14003,0.10665 -0.51565,0.17213 -0.42008,0.31994 0.30092,0.46541 16.96259,5.47732 18.37367,5.94115 4.83692,1.58872 9.89843,2.47353 14.71551,4.12744 0.7067,0.24264 1.37578,0.58417 2.05347,0.89889 0.19734,0.0916 0.75444,0.20471 0.5694,0.31918 -6.14102,3.79881 -12.47803,7.27124 -18.71704,10.90686 -7.47807,-0.42863 -14.85228,-1.48032 -22.25745,-2.56898 -6.52691,-0.79166 -13.02351,-1.84187 -19.4767,-3.09873 0,0 15.99044,-11.16895 15.99044,-11.16895 l 0,0 c 6.48735,1.17978 13.00926,2.13979 19.55328,2.95271 7.42265,1.11541 14.84106,1.95728 22.33374,2.42492 -4.72237,3.80351 -9.37002,7.7017 -14.16712,11.41052 -0.10167,0.0786 -0.21033,-0.15015 -0.32663,-0.20484 -0.58961,-0.27722 -1.17391,-0.57196 -1.78807,-0.78945 -4.78075,-1.69295 -9.77824,-2.71724 -14.60799,-4.2472 -4.10767,-1.30469 -18.10288,-4.23279 -20.1213,-8.13558 -0.26663,-0.51554 -0.0705,-1.15868 -0.10569,-1.73802 6.19506,-3.68548 12.30341,-7.52076 18.58516,-11.05645 6.54942,-3.68635 14.70246,-4.46762 21.817,-6.44392 0,0 -15.8402,11.8556 -15.8402,11.8556 z"
       inkscape:connector-curvature="0" />
    <path
       style="fill:#ffff00;stroke:#000000;stroke-width:1px;stroke-linecap:butt;stroke-linejoin:miter;stroke-opacity:1"
       d="m -505.71428,350.93361 0,45.71429 45.71428,2.85714 0,-48.57143 z"
       id="path3495-45-89"
       inkscape:connector-curvature="0" />
    <path
       style="fill:#ffff00;stroke:#000000;stroke-width:1px;stroke-linecap:butt;stroke-linejoin:miter;stroke-opacity:1"
       d="m -460,256.64789 0,45.71429 45.71428,2.85714 0,-48.57143 z"
       id="path3495-45-46"
       inkscape:connector-curvature="0" />
    <path
       style="fill:#ffff00;stroke:#000000;stroke-width:1px;stroke-linecap:butt;stroke-linejoin:miter;stroke-opacity:1"
       d="m -411.42857,648.07647 0,45.71429 45.71428,2.85714 0,-48.57143 z"
       id="path3495-45-0"
       inkscape:connector-curvature="0" />
    <path
       style="fill:#ffff00;stroke:#000000;stroke-width:1px;stroke-linecap:butt;stroke-linejoin:miter;stroke-opacity:1"
       d="m -502.85714,162.36218 0,45.71429 45.71428,2.85714 0,-48.57143 z"
       id="path3495-45-05"
       inkscape:connector-curvature="0" />
    <path
       style="fill:#ffff00;stroke:#000000;stroke-width:0.73349637px;stroke-linecap:butt;stroke-linejoin:miter;stroke-opacity:1"
       d="m -428.70468,507.94322 0,43.27604 25.98078,2.70475 0,-45.98079 z"
       id="path3495-45-43"
       inkscape:connector-curvature="0" />
    <path
       style="fill:#333333;stroke:#000000;stroke-width:1px;stroke-linecap:butt;stroke-linejoin:miter;stroke-opacity:1"
       d="m -408.57143,720.93361 14.28572,5.71428 -11.42858,368.57141 -11.42857,2.8572 -8.57143,-374.28575 z"
       id="path3788"
       inkscape:connector-curvature="0" />
    <path
       style="fill:#000000;stroke:#000000;stroke-width:1px;stroke-linecap:butt;stroke-linejoin:miter;stroke-opacity:1"
       d="M 42.857143,460.93361 40,1098.0765 l 291.42857,2.8571 -20,-637.14285 z"
       id="path3790"
       inkscape:connector-curvature="0" />
    <path
       style="fill:#ffff00;stroke:#000000;stroke-width:1px;stroke-linecap:butt;stroke-linejoin:miter;stroke-opacity:1"
       d="m 85.714289,519.50504 0,45.71429 45.714281,2.85714 0,-48.57143 z"
       id="path3495-45-97"
       inkscape:connector-curvature="0" />
    <path
       style="fill:#ffff00;stroke:#000000;stroke-width:1px;stroke-linecap:butt;stroke-linejoin:miter;stroke-opacity:1"
       d="m 214.28571,928.07646 0,45.71429 45.7143,2.85714 0,-48.57143 z"
       id="path3495-45-02"
       inkscape:connector-curvature="0" />
    <path
       style="fill:#ffff00;stroke:#000000;stroke-width:1px;stroke-linecap:butt;stroke-linejoin:miter;stroke-opacity:1"
       d="m 94.285671,925.21932 0,45.71429 45.714299,2.85714 0,-48.57143 z"
       id="path3495-45-72"
       inkscape:connector-curvature="0" />
    <path
       style="fill:#ffff00;stroke:#000000;stroke-width:1px;stroke-linecap:butt;stroke-linejoin:miter;stroke-opacity:1"
       d="m 82.857144,653.79076 0,45.71429 45.714276,2.85714 0,-48.57143 z"
       id="path3495-45-78"
       inkscape:connector-curvature="0" />
    <path
       style="fill:#ffff00;stroke:#000000;stroke-width:1px;stroke-linecap:butt;stroke-linejoin:miter;stroke-opacity:1"
       d="m 222.85714,522.36218 0,45.71429 45.71428,2.85714 0,-48.57143 z"
       id="path3495-45-1"
       inkscape:connector-curvature="0" />
    <path
       style="fill:#ffff00;stroke:#000000;stroke-width:1px;stroke-linecap:butt;stroke-linejoin:miter;stroke-opacity:1"
       d="m 82.8571,793.79075 0,45.71429 45.7143,2.85714 0,-48.57143 z"
       id="path3495-45-35"
       inkscape:connector-curvature="0" />
    <path
       style="fill:#ffff00;stroke:#000000;stroke-width:1px;stroke-linecap:butt;stroke-linejoin:miter;stroke-opacity:1"
       d="m 234.28569,650.93361 0,45.71429 45.7143,2.85714 0,-48.57143 z"
       id="path3495-45-45"
       inkscape:connector-curvature="0" />
    <path
       style="fill:#ffff00;stroke:#000000;stroke-width:1px;stroke-linecap:butt;stroke-linejoin:miter;stroke-opacity:1"
       d="m 231.42862,793.79076 0,45.71429 45.7142,2.85714 0,-48.57143 z"
       id="path3495-45-42"
       inkscape:connector-curvature="0" />
    <path
       style="fill:#1a1a1a;stroke:#000000;stroke-width:1px;stroke-linecap:butt;stroke-linejoin:miter;stroke-opacity:1"
       d="m -105.71429,832.36218 2.85715,-282.85714 125.714283,5.71429 11.428571,548.57147 -100,0 -8.571428,-5.7143 -14.285715,-257.14289 z"
       id="path3855"
       inkscape:connector-curvature="0" />
    <path
       style="fill:#ffff00;stroke:#000000;stroke-width:1px;stroke-linecap:butt;stroke-linejoin:miter;stroke-opacity:1"
       d="m -25.714271,848.07647 0,45.71429 45.7143,2.85714 0,-48.57143 z"
       id="path3495-45-6"
       inkscape:connector-curvature="0" />
    <path
       style="fill:#ffff00;stroke:#000000;stroke-width:1px;stroke-linecap:butt;stroke-linejoin:miter;stroke-opacity:1"
       d="m -97.142854,719.50504 0,45.71429 45.71428,2.85714 0,-48.57143 z"
       id="path3495-45-10"
       inkscape:connector-curvature="0" />
    <path
       style="fill:#ffff00;stroke:#000000;stroke-width:0.74806619px;stroke-linecap:butt;stroke-linejoin:miter;stroke-opacity:1"
       d="m -85.84021,927.95049 0,40.57326 28.823277,2.53582 0,-43.10908 z"
       id="path3495-45-59"
       inkscape:connector-curvature="0" />
    <path
       style="fill:#ffff00;stroke:#000000;stroke-width:1px;stroke-linecap:butt;stroke-linejoin:miter;stroke-opacity:1"
       d="m -45.714271,593.79075 0,45.71429 45.714299571429,2.85714 0,-48.57143 z"
       id="path3495-45-74"
       inkscape:connector-curvature="0" />
    <path
       style="fill:#ffff00;stroke:#000000;stroke-width:1px;stroke-linecap:butt;stroke-linejoin:miter;stroke-opacity:1"
       d="m -25.714281,1008.0765 0,45.7143 45.71428,2.8571 0,-48.5714 z"
       id="path3495-45-3"
       inkscape:connector-curvature="0" />
    <path
       style="fill:#333333;stroke:#000000;stroke-width:1px;stroke-linecap:butt;stroke-linejoin:miter;stroke-opacity:1"
       d="m -220,380.93361 0,-291.42857 188.571429,8.571428 -2.857143,457.142862 -74.285716,-8.57143 0,297.14285 -45.71428,-11.42857 8.57142,-448.57143 z"
       id="path3885"
       inkscape:connector-curvature="0" />
    <path
       style="fill:#ffff00;stroke:#000000;stroke-width:1px;stroke-linecap:butt;stroke-linejoin:miter;stroke-opacity:1"
       d="m -182.85716,228.07646 0,45.71429 45.7143,2.85714 0,-48.57143 z"
       id="path3495-45-52"
       inkscape:connector-curvature="0" />
    <path
       style="fill:#ffff00;stroke:#000000;stroke-width:1px;stroke-linecap:butt;stroke-linejoin:miter;stroke-opacity:1"
       d="m -114.2857,428.07647 0,45.71429 45.714314,2.85714 0,-48.57143 z"
       id="path3495-45-19"
       inkscape:connector-curvature="0" />
    <path
       style="fill:#ffff00;stroke:#000000;stroke-width:1px;stroke-linecap:butt;stroke-linejoin:miter;stroke-opacity:1"
       d="m -114.2857,313.79075 0,45.71429 45.7143,2.85714 0,-48.57143 z"
       id="path3495-45-92"
       inkscape:connector-curvature="0" />
    <path
       style="fill:#ffff00;stroke:#000000;stroke-width:1px;stroke-linecap:butt;stroke-linejoin:miter;stroke-opacity:1"
       d="m -180,128.07646 0,45.71429 45.71428,2.85714 0,-48.57143 z"
       id="path3495-45-23"
       inkscape:connector-curvature="0" />
    <path
       style="fill:#1a1a1a;stroke:#000000;stroke-width:1px;stroke-linecap:butt;stroke-linejoin:miter;stroke-opacity:1"
       d="M -911.42857,743.79075 -900,155.21933 l -277.1429,8.57142 8.5715,940.00005 177.14283,0 L -980,746.6479 z"
       id="path3936"
       inkscape:connector-curvature="0" />
    <path
       style="fill:#ffff00;stroke:#000000;stroke-width:1px;stroke-linecap:butt;stroke-linejoin:miter;stroke-opacity:1"
       d="m -1134.2857,565.21933 0,45.71429 45.7143,2.85714 0,-48.57143 z"
       id="path3495-45-00"
       inkscape:connector-curvature="0" />
    <path
       style="fill:#ffff00;stroke:#000000;stroke-width:1px;stroke-linecap:butt;stroke-linejoin:miter;stroke-opacity:1"
       d="m -994.28571,388.07647 0,45.71429 45.71428,2.85714 0,-48.57143 z"
       id="path3495-45-44"
       inkscape:connector-curvature="0" />
    <path
       style="fill:#ffff00;stroke:#000000;stroke-width:1px;stroke-linecap:butt;stroke-linejoin:miter;stroke-opacity:1"
       d="m -1131.4286,393.79075 0,45.71429 45.7143,2.85714 0,-48.57143 z"
       id="path3495-45-71"
       inkscape:connector-curvature="0" />
    <path
       style="fill:#ffff00;stroke:#000000;stroke-width:1px;stroke-linecap:butt;stroke-linejoin:miter;stroke-opacity:1"
       d="m -994.2857,230.93361 0,45.71429 45.71428,2.85714 0,-48.57143 z"
       id="path3495-45-14"
       inkscape:connector-curvature="0" />
    <path
       style="fill:#ffff00;stroke:#000000;stroke-width:1px;stroke-linecap:butt;stroke-linejoin:miter;stroke-opacity:1"
       d="m -1122.8571,228.07647 0,45.71429 45.7143,2.85714 0,-48.57143 z"
       id="path3495-45-39"
       inkscape:connector-curvature="0" />
    <path
       style="fill:#ffff00;stroke:#000000;stroke-width:1px;stroke-linecap:butt;stroke-linejoin:miter;stroke-opacity:1"
       d="m -1142.8571,713.79075 0,45.71429 45.7143,2.85714 0,-48.57143 z"
       id="path3495-45-53"
       inkscape:connector-curvature="0" />
    <path
       style="fill:#ffff00;stroke:#000000;stroke-width:1px;stroke-linecap:butt;stroke-linejoin:miter;stroke-opacity:1"
       d="m -988.57146,562.36218 0,45.71429 45.7143,2.85714 0,-48.57143 z"
       id="path3495-45-357"
       inkscape:connector-curvature="0" />
    <path
       style="fill:#ffff00;stroke:#000000;stroke-width:1px;stroke-linecap:butt;stroke-linejoin:miter;stroke-opacity:1"
       d="m -1142.8571,876.64789 0,45.71429 45.7142,2.85714 0,-48.57143 z"
       id="path3495-45-66"
       inkscape:connector-curvature="0" />
    <path
       style="fill:#ffff00;stroke:#000000;stroke-width:0.56987703px;stroke-linecap:butt;stroke-linejoin:miter;stroke-opacity:1"
       d="m -1000.2151,873.57569 0,46.11911 14.71586,2.88244 0,-49.00155 z"
       id="path3495-45-21"
       inkscape:connector-curvature="0" />
    <path
       style="fill:#ffff00;stroke:#000000;stroke-width:0.6715256px;stroke-linecap:butt;stroke-linejoin:miter;stroke-opacity:1"
       d="m -983.02137,722.19795 0,21.82175 43.1856,1.36386 0,-23.18561 z"
       id="path3495-45-27"
       inkscape:connector-curvature="0" />
    <path
       style="fill:#ffff00;stroke:#000000;stroke-width:0.62150347px;stroke-linecap:butt;stroke-linejoin:miter;stroke-opacity:1"
       d="m -994.47494,722.17293 0,46.07053 17.5213,2.87941 0,-48.94994 z"
       id="path3495-45-07"
       inkscape:connector-curvature="0" />
    <path
       style="fill:#1a1a1a;stroke:#000000;stroke-width:1px;stroke-linecap:butt;stroke-linejoin:miter;stroke-opacity:1"
       d="m -860,752.36219 c -8.57142,-31.42857 5.71429,-411.42857 5.71429,-411.42857 l 108.57143,5.71428 -5.71429,605.71429 -51.42857,-5.71429 -5.71428,154.2857 -40,0 c 0,0 40,-359.99998 22.85714,-354.2857 C -842.85714,752.36219 -860,752.36219 -860,752.36219 z"
       id="path4008"
       inkscape:connector-curvature="0" />
    <path
       style="fill:none;stroke:#000000;stroke-width:1px;stroke-linecap:butt;stroke-linejoin:miter;stroke-opacity:1"
       d="m -814.28571,749.50504 -8.57143,357.14286"
       id="path4010"
       inkscape:connector-curvature="0" />
    <path
       style="fill:#ffff00;stroke:#000000;stroke-width:1px;stroke-linecap:butt;stroke-linejoin:miter;stroke-opacity:1"
       d="m -851.42857,570.93361 0,45.71429 45.71428,2.85714 0,-48.57143 z"
       id="path3495-45-216"
       inkscape:connector-curvature="0" />
    <path
       style="fill:#ffff00;stroke:#000000;stroke-width:1px;stroke-linecap:butt;stroke-linejoin:miter;stroke-opacity:1"
       d="m -805.71425,679.50503 0,45.71429 45.7142,2.85714 0,-48.57143 z"
       id="path3495-45-80"
       inkscape:connector-curvature="0" />
    <path
       style="fill:#ffff00;stroke:#000000;stroke-width:1px;stroke-linecap:butt;stroke-linejoin:miter;stroke-opacity:1"
       d="m -788.57145,839.50504 0,45.71429 45.7143,2.85714 0,-48.57143 z"
       id="path3495-45-723"
       inkscape:connector-curvature="0" />
    <path
       style="fill:#ffff00;stroke:#000000;stroke-width:1px;stroke-linecap:butt;stroke-linejoin:miter;stroke-opacity:1"
       d="m -808.57139,459.50503 0,45.71429 45.7142,2.85714 0,-48.57143 z"
       id="path3495-45-482"
       inkscape:connector-curvature="0" />
    <path
       style="fill:#ffff00;stroke:#000000;stroke-width:1px;stroke-linecap:butt;stroke-linejoin:miter;stroke-opacity:1"
       d="m -842.85713,362.36219 0,45.71429 45.7143,2.85714 0,-48.57143 z"
       id="path3495-45-51"
       inkscape:connector-curvature="0" />
    <path
       style="fill:#333333;stroke:#000000;stroke-width:1px;stroke-linecap:butt;stroke-linejoin:miter;stroke-opacity:1"
       d="M -768.57143,335.21933 -760,100.93361 l 142.85714,5.71429 11.42857,345.71428 -65.71428,0 -17.14286,0 -2.85714,645.71432 -57.14286,5.7143 2.85714,-760.00005 z"
       id="path4061"
       inkscape:connector-curvature="0" />
    <path
       style="fill:#ffff00;stroke:#000000;stroke-width:1px;stroke-linecap:butt;stroke-linejoin:miter;stroke-opacity:1"
       d="m -740,182.36218 0,45.71429 45.71428,2.85714 0,-48.57143 z"
       id="path3495-45-68"
       inkscape:connector-curvature="0" />
    <path
       style="fill:#ffff00;stroke:#000000;stroke-width:1px;stroke-linecap:butt;stroke-linejoin:miter;stroke-opacity:1"
       d="m -691.42857,262.36219 0,45.71429 45.71428,2.85714 0,-48.57143 z"
       id="path3495-45-13"
       inkscape:connector-curvature="0" />
    <path
       style="fill:#ffff00;stroke:#000000;stroke-width:0.86885083px;stroke-linecap:butt;stroke-linejoin:miter;stroke-opacity:1"
       d="m -745.77985,368.0109 0,45.83772 34.41687,2.86485 0,-48.70257 z"
       id="path3495-45-212"
       inkscape:connector-curvature="0" />
    <path
       style="fill:#ffff00;stroke:#000000;stroke-width:0.77193832px;stroke-linecap:butt;stroke-linejoin:miter;stroke-opacity:1"
       d="m -685.82829,425.10529 0,27.1054 45.94236,1.69409 0,-28.79949 z"
       id="path3495-45-62"
       inkscape:connector-curvature="0" />
    <path
       style="fill:#ffff00;stroke:#000000;stroke-width:0.79507148px;stroke-linecap:butt;stroke-linejoin:miter;stroke-opacity:1"
       d="m -742.9596,507.974 0,45.90717 28.77635,2.86919 0,-48.77636 z"
       id="path3495-45-9"
       inkscape:connector-curvature="0" />
    <path
       style="fill:#ffff00;stroke:#000000;stroke-width:0.66915363px;stroke-linecap:butt;stroke-linejoin:miter;stroke-opacity:1"
       d="m -748.73685,625.0539 0,46.02567 20.33084,2.87661 0,-48.90228 z"
       id="path3495-45-03"
       inkscape:connector-curvature="0" />
    <path
       style="fill:#ffff00;stroke:#000000;stroke-width:0.71361721px;stroke-linecap:butt;stroke-linejoin:miter;stroke-opacity:1"
       d="m -743.00033,782.21899 0,45.98383 23.14352,2.87398 0,-48.85781 z"
       id="path3495-45-08"
       inkscape:connector-curvature="0" />
    <path
       style="fill:#ffff00;stroke:#000000;stroke-width:0.66915381px;stroke-linecap:butt;stroke-linejoin:miter;stroke-opacity:1"
       d="m -743.02255,913.62534 0,46.02568 20.33086,2.87659 0,-48.90227 z"
       id="path3495-45-48"
       inkscape:connector-curvature="0" />
    <path
       style="fill:#000000;stroke:#000000;stroke-width:1px;stroke-linecap:butt;stroke-linejoin:miter;stroke-opacity:1"
       d="M 457.14286,86.647897 471.42857,1100.9336 800,1098.0765 768.57143,86.647897 z"
       id="path4077"
       inkscape:connector-curvature="0" />
    <path
       style="fill:#ffff00;stroke:#000000;stroke-width:1px;stroke-linecap:butt;stroke-linejoin:miter;stroke-opacity:1"
       d="m 648.57143,168.07647 0,45.71429 45.71428,2.85714 0,-48.57143 z"
       id="path3495-45-17"
       inkscape:connector-curvature="0" />
    <path
       style="fill:#ffff00;stroke:#000000;stroke-width:1px;stroke-linecap:butt;stroke-linejoin:miter;stroke-opacity:1"
       d="m 500,393.79075 0,45.71429 45.71428,2.85714 0,-48.57143 z"
       id="path3495-45-06"
       inkscape:connector-curvature="0" />
    <path
       style="fill:#ffff00;stroke:#000000;stroke-width:1px;stroke-linecap:butt;stroke-linejoin:miter;stroke-opacity:1"
       d="m 660.00001,402.36218 0,45.71429 45.71428,2.85714 0,-48.57143 z"
       id="path3495-45-023"
       inkscape:connector-curvature="0" />
    <path
       style="fill:#ffff00;stroke:#000000;stroke-width:1px;stroke-linecap:butt;stroke-linejoin:miter;stroke-opacity:1"
       d="m 508.57143,622.36218 0,45.71429 45.71428,2.85714 0,-48.57143 z"
       id="path3495-45-01"
       inkscape:connector-curvature="0" />
    <path
       style="fill:#ffff00;stroke:#000000;stroke-width:0.97834074px;stroke-linecap:butt;stroke-linejoin:miter;stroke-opacity:1"
       d="m 536.15369,168.06564 0,45.73468 -43.73595,2.85841 0,-48.59309 z"
       id="path3495-45-740"
       inkscape:connector-curvature="0" />
    <path
       style="fill:#ffff00;stroke:#000000;stroke-width:1px;stroke-linecap:butt;stroke-linejoin:miter;stroke-opacity:1"
       d="m 674.28572,619.50504 0,45.71429 45.71428,2.85714 0,-48.57143 z"
       id="path3495-45-36"
       inkscape:connector-curvature="0" />
    <path
       style="fill:#ffff00;stroke:#000000;stroke-width:1px;stroke-linecap:butt;stroke-linejoin:miter;stroke-opacity:1"
       d="m 520,842.36218 0,45.71429 45.7143,2.85714 0,-48.57143 z"
       id="path3495-45-84"
       inkscape:connector-curvature="0" />
    <path
       style="fill:#ffff00;stroke:#000000;stroke-width:1px;stroke-linecap:butt;stroke-linejoin:miter;stroke-opacity:1"
       d="m 682.85719,842.36218 0,45.71429 45.7142,2.85714 0,-48.57143 z"
       id="path3495-45-016"
       inkscape:connector-curvature="0" />
    <path
       style="fill:#1a1a1a;stroke:#000000;stroke-width:1px;stroke-linecap:butt;stroke-linejoin:miter;stroke-opacity:1"
       d="m 211.42857,460.93361 8.57143,-280 205.71429,2.85714 20,917.14285 -120,0 -11.42858,-639.99999 z"
       id="path4135"
       inkscape:connector-curvature="0" />
    <path
       style="fill:#ffff00;stroke:#000000;stroke-width:1px;stroke-linecap:butt;stroke-linejoin:miter;stroke-opacity:1"
       d="m 360,650.93361 0,45.71429 45.71428,2.85714 0,-48.57143 z"
       id="path3495-45-85"
       inkscape:connector-curvature="0" />
    <path
       style="fill:#ffff00;stroke:#000000;stroke-width:1px;stroke-linecap:butt;stroke-linejoin:miter;stroke-opacity:1"
       d="m 260,222.36218 0,45.71429 45.71428,2.85714 0,-48.57143 z"
       id="path3495-45-12"
       inkscape:connector-curvature="0" />
    <path
       style="fill:#ffff00;stroke:#000000;stroke-width:1px;stroke-linecap:butt;stroke-linejoin:miter;stroke-opacity:1"
       d="m 360,388.07647 0,45.71429 45.71428,2.85714 0,-48.57143 z"
       id="path3495-45-34"
       inkscape:connector-curvature="0" />
    <path
       style="fill:#ffff00;stroke:#000000;stroke-width:1.03674924px;stroke-linecap:butt;stroke-linejoin:miter;stroke-opacity:1"
       d="m 368.58981,935.62952 0,-49.1755 45.67752,-3.07346 0,52.24896 z"
       id="path3495-45-972"
       inkscape:connector-curvature="0" />
    <path
       style="fill:#333333;stroke:#000000;stroke-width:1px;stroke-linecap:butt;stroke-linejoin:miter;stroke-opacity:1"
       d="m 345.71429,180.93361 -2.85715,-68.57143 120,5.71429 5.71429,965.71433 -17.14286,22.8571 -22.85714,-925.71429 z"
       id="path4165"
       inkscape:connector-curvature="0" />
    <path
       style="fill:#ffff00;stroke:#000000;stroke-width:0.55342114px;stroke-linecap:butt;stroke-linejoin:miter;stroke-opacity:1"
       d="m 356.91957,164.99603 0,13.86569 46.16086,0.86661 0,-14.7323 z"
       id="path3495-45-70"
       inkscape:connector-curvature="0" />
  </g>
</svg>
