<?xml version="1.0" encoding="UTF-8" standalone="no"?>
<!-- Created with Inkscape (http://www.inkscape.org/) -->

<svg
   xmlns:dc="http://purl.org/dc/elements/1.1/"
   xmlns:cc="http://creativecommons.org/ns#"
   xmlns:rdf="http://www.w3.org/1999/02/22-rdf-syntax-ns#"
   xmlns:svg="http://www.w3.org/2000/svg"
   xmlns="http://www.w3.org/2000/svg"
   xmlns:sodipodi="http://sodipodi.sourceforge.net/DTD/sodipodi-0.dtd"
   xmlns:inkscape="http://www.inkscape.org/namespaces/inkscape"
   width="744.09448819"
   height="1052.3622047"
   id="svg2"
   version="1.1"
   inkscape:version="0.48.4 r9939"
   sodipodi:docname="New document 1">
  <defs
     id="defs4" />
  <sodipodi:namedview
     id="base"
     pagecolor="#ffffff"
     bordercolor="#666666"
     borderopacity="1.0"
     inkscape:pageopacity="0.0"
     inkscape:pageshadow="2"
     inkscape:zoom="0.35"
     inkscape:cx="375"
     inkscape:cy="520"
     inkscape:document-units="px"
     inkscape:current-layer="layer1"
     showgrid="false"
     inkscape:window-width="1375"
     inkscape:window-height="876"
     inkscape:window-x="65"
     inkscape:window-y="24"
     inkscape:window-maximized="1" />
  <metadata
     id="metadata7">
    <rdf:RDF>
      <cc:Work
         rdf:about="">
        <dc:format>image/svg+xml</dc:format>
        <dc:type
           rdf:resource="http://purl.org/dc/dcmitype/StillImage" />
        <dc:title></dc:title>
      </cc:Work>
    </rdf:RDF>
  </metadata>
  <g
     inkscape:label="Layer 1"
     inkscape:groupmode="layer"
     id="layer1">
    <path
       sodipodi:type="arc"
       style="fill:#000000"
       id="path2985"
       sodipodi:cx="507.14285"
       sodipodi:cy="425.21933"
       sodipodi:rx="150"
       sodipodi:ry="155.71428"
       d="m 657.14285,425.21933 a 150,155.71428 0 1 1 -300,0 150,155.71428 0 1 1 300,0 z"
       transform="translate(-122.85714,-197.14286)" />
    <path
       style="fill:#000000;stroke:#000000;stroke-width:1px;stroke-linecap:butt;stroke-linejoin:miter;stroke-opacity:1"
       d="m 251.42857,383.79075 c 51.42857,25.71429 51.42857,25.71429 51.42857,25.71429 L 440,412.36218 l 51.42857,-31.42857 0,0 -20,94.28572 14.28572,197.14285 -231.42858,2.85715 17.14286,-197.14286 z"
       id="path3003"
       inkscape:connector-curvature="0" />
    <path
       style="fill:#000000;stroke:#000000;stroke-width:1px;stroke-linecap:butt;stroke-linejoin:miter;stroke-opacity:1"
       d="M 520,406.6479 597.14286,560.93361 540,586.6479 491.42857,483.79076 z"
       id="path3009"
       inkscape:connector-curvature="0" />
    <path
       style="fill:#000000;stroke:#000000;stroke-width:1px;stroke-linecap:butt;stroke-linejoin:miter;stroke-opacity:1"
       d="m 218.57144,402.36219 -77.14286,154.28571 57.14286,25.71429 48.57143,-102.85714 z"
       id="path3009-3"
       inkscape:connector-curvature="0" />
    <path
       style="fill:#000000;stroke:#000000;stroke-width:1px;stroke-linecap:butt;stroke-linejoin:miter;stroke-opacity:1"
       d="m 248.57143,692.36218 240,-2.85714 11.42857,65.71429 -45.71429,-22.85715 -162.85714,-2.85714 -34.28571,17.14286 -8.57143,5.71428 z"
       id="path3029"
       inkscape:connector-curvature="0" />
    <path
       style="fill:#000000;stroke:#000000;stroke-width:1px;stroke-linecap:butt;stroke-linejoin:miter;stroke-opacity:1"
       d="m 411.42857,760.93361 34.28571,-2.85714 48.57143,28.57143 20,197.14285 -88.57143,-5.71428 z"
       id="path3031"
       inkscape:connector-curvature="0" />
    <path
       style="fill:#000000;stroke:#000000;stroke-width:1px;stroke-linecap:butt;stroke-linejoin:miter;stroke-opacity:1"
       d="m 351.42857,759.50504 -34.28571,-2.8571 -48.57143,28.5714 -20,197.1428 88.57143,-5.7142 z"
       id="path3031-0"
       inkscape:connector-curvature="0" />
    <path
       sodipodi:type="arc"
       style="fill:#ffffff"
       id="path3096"
       sodipodi:cx="-371.42856"
       sodipodi:cy="200.93361"
       sodipodi:rx="42.857143"
       sodipodi:ry="34.285713"
       d="m -328.57141,200.93361 a 42.857143,34.285713 0 1 1 -85.71429,0 42.857143,34.285713 0 1 1 85.71429,0 z"
       transform="translate(465.71429,-11.428571)" />
  </g>
</svg>
